{
	"patcher" : 	{
		"fileversion" : 1,
		"appversion" : 		{
			"major" : 6,
			"minor" : 0,
			"revision" : 2
		}
,
		"rect" : [ 100.0, 100.0, 688.0, 547.0 ],
		"bglocked" : 0,
		"openinpresentation" : 0,
		"default_fontsize" : 12.0,
		"default_fontface" : 0,
		"default_fontname" : "Arial",
		"gridonopen" : 0,
		"gridsize" : [ 5.0, 5.0 ],
		"gridsnaponopen" : 0,
		"statusbarvisible" : 2,
		"toolbarvisible" : 1,
		"boxanimatetime" : 200,
		"imprint" : 0,
		"enablehscroll" : 1,
		"enablevscroll" : 1,
		"devicewidth" : 0.0,
		"description" : "",
		"digest" : "",
		"tags" : "",
		"showrootpatcherontab" : 0,
		"showontab" : 0,
		"boxes" : [ 			{
				"box" : 				{
					"fontname" : "Arial",
					"fontsize" : 12.0,
					"id" : "obj-3",
					"maxclass" : "newobj",
					"numinlets" : 0,
					"numoutlets" : 0,
					"patcher" : 					{
						"fileversion" : 1,
						"appversion" : 						{
							"major" : 6,
							"minor" : 0,
							"revision" : 2
						}
,
						"rect" : [ 0.0, 26.0, 688.0, 521.0 ],
						"bglocked" : 0,
						"openinpresentation" : 0,
						"default_fontsize" : 13.0,
						"default_fontface" : 0,
						"default_fontname" : "Arial",
						"gridonopen" : 0,
						"gridsize" : [ 5.0, 5.0 ],
						"gridsnaponopen" : 0,
						"statusbarvisible" : 2,
						"toolbarvisible" : 1,
						"boxanimatetime" : 200,
						"imprint" : 0,
						"enablehscroll" : 1,
						"enablevscroll" : 1,
						"devicewidth" : 0.0,
						"description" : "",
						"digest" : "",
						"tags" : "",
						"showontab" : 1,
						"boxes" : [ 							{
								"box" : 								{
									"id" : "obj-15",
									"maxclass" : "button",
									"numinlets" : 1,
									"numoutlets" : 1,
									"outlettype" : [ "bang" ],
									"patching_rect" : [ 295.0, 107.0, 20.0, 20.0 ]
								}

							}
, 							{
								"box" : 								{
									"fontname" : "Arial",
									"fontsize" : 13.0,
									"frgb" : [ 0.501961, 0.501961, 0.501961, 1.0 ],
									"id" : "obj-13",
									"linecount" : 5,
									"maxclass" : "comment",
									"numinlets" : 1,
									"numoutlets" : 0,
									"patching_rect" : [ 320.0, 76.5, 309.0, 81.0 ],
									"text" : "Open the sidebar by clicking on the lower right icon in the bottom toolbar, select the 'Reference' tab, and try out some commands by typing in the textedit object below. Separate each command with a comma and click the bang to enter the text.",
									"textcolor" : [ 0.501961, 0.501961, 0.501961, 1.0 ]
								}

							}
, 							{
								"box" : 								{
									"fontname" : "Arial",
									"fontsize" : 13.0,
									"id" : "obj-7",
									"maxclass" : "newobj",
									"numinlets" : 1,
									"numoutlets" : 0,
									"patching_rect" : [ 149.0, 227.5, 102.0, 21.0 ],
									"text" : "print @popup 1"
								}

							}
, 							{
								"box" : 								{
									"fontname" : "Arial",
									"fontsize" : 13.0,
									"id" : "obj-3",
									"maxclass" : "newobj",
									"numinlets" : 2,
									"numoutlets" : 2,
									"outlettype" : [ "", "" ],
									"patching_rect" : [ 295.0, 320.0, 66.0, 21.0 ],
									"text" : "route text"
								}

							}
, 							{
								"box" : 								{
									"autoscroll" : 0,
									"fontname" : "Arial",
									"fontsize" : 13.0,
									"id" : "obj-21",
									"keymode" : 1,
									"linecount" : 4,
									"lines" : 100,
									"maxclass" : "textedit",
									"numinlets" : 1,
									"numoutlets" : 4,
									"outlettype" : [ "", "int", "", "" ],
									"parameter_enable" : 0,
									"patching_rect" : [ 295.0, 165.0, 330.0, 146.0 ],
									"separator" : "\u002c",
									"text" : "set_source_rgb 1. 0 0, ellipse 180 180 10 10, ellipse 165 165 20 20, ellipse 142.5 142.5 30 30, ellipse 113 113 40 40, ellipse 76.5 76.5 50 50, ellipse 33 33. 60 60, fill"
								}

							}
, 							{
								"box" : 								{
									"fontname" : "Arial",
									"fontsize" : 13.0,
									"id" : "obj-2",
									"maxclass" : "comment",
									"numinlets" : 1,
									"numoutlets" : 0,
									"patching_rect" : [ 10.0, 70.0, 179.0, 21.0 ],
									"text" : "Constructing command lists:"
								}

							}
, 							{
								"box" : 								{
									"border" : 0,
									"filename" : "helpname.js",
									"id" : "obj-4",
									"jsarguments" : [ "jit.mgraphics" ],
									"maxclass" : "jsui",
									"numinlets" : 1,
									"numoutlets" : 1,
									"outlettype" : [ "" ],
									"parameter_enable" : 0,
									"patching_rect" : [ 10.0, 10.0, 305.0, 55.0 ]
								}

							}
, 							{
								"box" : 								{
									"bubble" : 1,
									"fontname" : "Arial",
									"fontsize" : 13.0,
									"id" : "obj-148",
									"maxclass" : "comment",
									"numinlets" : 1,
									"numoutlets" : 0,
									"patching_rect" : [ 155.5, 132.5, 101.0, 25.0 ],
									"text" : "click to clear"
								}

							}
, 							{
								"box" : 								{
									"id" : "obj-43",
									"maxclass" : "button",
									"numinlets" : 1,
									"numoutlets" : 1,
									"outlettype" : [ "bang" ],
									"patching_rect" : [ 130.0, 132.5, 20.0, 20.0 ]
								}

							}
, 							{
								"box" : 								{
									"fontname" : "Arial",
									"fontsize" : 13.0,
									"id" : "obj-41",
									"maxclass" : "newobj",
									"numinlets" : 1,
									"numoutlets" : 1,
									"outlettype" : [ "" ],
									"patcher" : 									{
										"fileversion" : 1,
										"appversion" : 										{
											"major" : 6,
											"minor" : 0,
											"revision" : 2
										}
,
										"rect" : [ 219.0, 87.0, 278.0, 205.0 ],
										"bglocked" : 0,
										"openinpresentation" : 0,
										"default_fontsize" : 12.0,
										"default_fontface" : 0,
										"default_fontname" : "Arial",
										"gridonopen" : 0,
										"gridsize" : [ 15.0, 15.0 ],
										"gridsnaponopen" : 0,
										"statusbarvisible" : 2,
										"toolbarvisible" : 1,
										"boxanimatetime" : 200,
										"imprint" : 0,
										"enablehscroll" : 1,
										"enablevscroll" : 1,
										"devicewidth" : 0.0,
										"description" : "",
										"digest" : "",
										"tags" : "",
										"boxes" : [ 											{
												"box" : 												{
													"fontname" : "Arial",
													"fontsize" : 12.0,
													"id" : "obj-4",
													"maxclass" : "newobj",
													"numinlets" : 1,
													"numoutlets" : 1,
													"outlettype" : [ "bang" ],
													"patching_rect" : [ 105.0, 32.0, 61.0, 20.0 ],
													"text" : "loadbang"
												}

											}
, 											{
												"box" : 												{
													"comment" : "",
													"id" : "obj-3",
													"maxclass" : "inlet",
													"numinlets" : 0,
													"numoutlets" : 1,
													"outlettype" : [ "bang" ],
													"patching_rect" : [ 45.0, 29.5, 25.0, 25.0 ]
												}

											}
, 											{
												"box" : 												{
													"fontname" : "Arial",
													"fontsize" : 12.0,
													"id" : "obj-30",
													"linecount" : 3,
													"maxclass" : "message",
													"numinlets" : 2,
													"numoutlets" : 1,
													"outlettype" : [ "" ],
													"patching_rect" : [ 45.0, 90.0, 190.0, 46.0 ],
													"text" : "set_source_rgba 1 1 1 1, paint, set_source_rgba 0 0 0 1, identity_matrix, move_to 0. 0."
												}

											}
, 											{
												"box" : 												{
													"comment" : "",
													"id" : "obj-40",
													"maxclass" : "outlet",
													"numinlets" : 1,
													"numoutlets" : 0,
													"patching_rect" : [ 45.0, 165.0, 25.0, 25.0 ]
												}

											}
 ],
										"lines" : [ 											{
												"patchline" : 												{
													"destination" : [ "obj-30", 0 ],
													"disabled" : 0,
													"hidden" : 0,
													"source" : [ "obj-3", 0 ]
												}

											}
, 											{
												"patchline" : 												{
													"destination" : [ "obj-40", 0 ],
													"disabled" : 0,
													"hidden" : 0,
													"source" : [ "obj-30", 0 ]
												}

											}
, 											{
												"patchline" : 												{
													"destination" : [ "obj-30", 0 ],
													"disabled" : 0,
													"hidden" : 0,
													"source" : [ "obj-4", 0 ]
												}

											}
 ],
										"dependency_cache" : [  ]
									}
,
									"patching_rect" : [ 130.0, 165.0, 89.0, 21.0 ],
									"saved_object_attributes" : 									{
										"globalpatchername" : "",
										"fontface" : 0,
										"fontsize" : 12.0,
										"default_fontface" : 0,
										"digest" : "",
										"default_fontname" : "Arial",
										"fontname" : "Arial",
										"tags" : "",
										"default_fontsize" : 12.0,
										"description" : ""
									}
,
									"text" : "patcher reset"
								}

							}
, 							{
								"box" : 								{
									"border" : 1.0,
									"id" : "obj-12",
									"maxclass" : "jit.pwindow",
									"numinlets" : 1,
									"numoutlets" : 2,
									"outlettype" : [ "", "" ],
									"patching_rect" : [ 30.0, 255.0, 250.0, 250.0 ],
									"presentation_rect" : [ 0.0, 0.0, 250.0, 250.0 ]
								}

							}
, 							{
								"box" : 								{
									"fontname" : "Arial",
									"fontsize" : 13.0,
									"id" : "obj-10",
									"maxclass" : "flonum",
									"numinlets" : 1,
									"numoutlets" : 2,
									"outlettype" : [ "float", "bang" ],
									"parameter_enable" : 0,
									"patching_rect" : [ 82.0, 102.0, 50.0, 21.0 ]
								}

							}
, 							{
								"box" : 								{
									"id" : "obj-8",
									"maxclass" : "toggle",
									"numinlets" : 1,
									"numoutlets" : 1,
									"outlettype" : [ "int" ],
									"parameter_enable" : 0,
									"patching_rect" : [ 30.0, 102.0, 20.0, 20.0 ]
								}

							}
, 							{
								"box" : 								{
									"fontname" : "Arial",
									"fontsize" : 13.0,
									"id" : "obj-6",
									"maxclass" : "newobj",
									"numinlets" : 2,
									"numoutlets" : 1,
									"outlettype" : [ "bang" ],
									"patching_rect" : [ 30.0, 132.0, 71.0, 21.0 ],
									"text" : "qmetro 33"
								}

							}
, 							{
								"box" : 								{
									"fontname" : "Arial",
									"fontsize" : 13.0,
									"id" : "obj-5",
									"maxclass" : "newobj",
									"numinlets" : 1,
									"numoutlets" : 2,
									"outlettype" : [ "jit_matrix", "" ],
									"patching_rect" : [ 30.0, 200.0, 138.0, 21.0 ],
									"text" : "jit.mgraphics 250 250"
								}

							}
 ],
						"lines" : [ 							{
								"patchline" : 								{
									"destination" : [ "obj-6", 1 ],
									"disabled" : 0,
									"hidden" : 0,
									"source" : [ "obj-10", 0 ]
								}

							}
, 							{
								"patchline" : 								{
									"destination" : [ "obj-21", 0 ],
									"disabled" : 0,
									"hidden" : 0,
									"source" : [ "obj-15", 0 ]
								}

							}
, 							{
								"patchline" : 								{
									"destination" : [ "obj-3", 0 ],
									"disabled" : 0,
									"hidden" : 0,
									"source" : [ "obj-21", 0 ]
								}

							}
, 							{
								"patchline" : 								{
									"destination" : [ "obj-5", 0 ],
									"disabled" : 0,
									"hidden" : 0,
									"midpoints" : [ 304.5, 350.0, 288.0, 350.0, 288.0, 195.0, 39.5, 195.0 ],
									"source" : [ "obj-3", 0 ]
								}

							}
, 							{
								"patchline" : 								{
									"destination" : [ "obj-5", 0 ],
									"disabled" : 0,
									"hidden" : 0,
									"source" : [ "obj-41", 0 ]
								}

							}
, 							{
								"patchline" : 								{
									"destination" : [ "obj-41", 0 ],
									"disabled" : 0,
									"hidden" : 0,
									"source" : [ "obj-43", 0 ]
								}

							}
, 							{
								"patchline" : 								{
									"destination" : [ "obj-12", 0 ],
									"disabled" : 0,
									"hidden" : 0,
									"source" : [ "obj-5", 0 ]
								}

							}
, 							{
								"patchline" : 								{
									"destination" : [ "obj-7", 0 ],
									"disabled" : 0,
									"hidden" : 0,
									"source" : [ "obj-5", 1 ]
								}

							}
, 							{
								"patchline" : 								{
									"destination" : [ "obj-5", 0 ],
									"disabled" : 0,
									"hidden" : 0,
									"source" : [ "obj-6", 0 ]
								}

							}
, 							{
								"patchline" : 								{
									"destination" : [ "obj-6", 0 ],
									"disabled" : 0,
									"hidden" : 0,
									"source" : [ "obj-8", 0 ]
								}

							}
 ],
						"dependency_cache" : [ 							{
								"name" : "helpname.js",
								"bootpath" : "/Applications/Max6/Cycling '74/help-resources",
								"type" : "TEXT",
								"implicit" : 1
							}
 ]
					}
,
					"patching_rect" : [ 10.0, 155.0, 102.0, 20.0 ],
					"saved_object_attributes" : 					{
						"globalpatchername" : "",
						"fontface" : 0,
						"fontsize" : 13.0,
						"default_fontface" : 0,
						"digest" : "",
						"default_fontname" : "Arial",
						"fontname" : "Arial",
						"tags" : "",
						"default_fontsize" : 13.0,
						"description" : ""
					}
,
					"text" : "p \"command list\"",
					"varname" : "basic_tab[2]"
				}

			}
, 			{
				"box" : 				{
					"fontname" : "Arial",
					"fontsize" : 12.0,
					"id" : "obj-9",
					"maxclass" : "newobj",
					"numinlets" : 0,
					"numoutlets" : 0,
					"patcher" : 					{
						"fileversion" : 1,
						"appversion" : 						{
							"major" : 6,
							"minor" : 0,
							"revision" : 2
						}
,
						"rect" : [ 0.0, 26.0, 688.0, 521.0 ],
						"bglocked" : 0,
						"openinpresentation" : 0,
						"default_fontsize" : 13.0,
						"default_fontface" : 0,
						"default_fontname" : "Arial",
						"gridonopen" : 0,
						"gridsize" : [ 5.0, 5.0 ],
						"gridsnaponopen" : 0,
						"statusbarvisible" : 2,
						"toolbarvisible" : 1,
						"boxanimatetime" : 200,
						"imprint" : 0,
						"enablehscroll" : 1,
						"enablevscroll" : 1,
						"devicewidth" : 0.0,
						"description" : "",
						"digest" : "",
						"tags" : "",
						"showontab" : 1,
						"boxes" : [ 							{
								"box" : 								{
									"bubble" : 1,
									"bubbleside" : 3,
									"fontname" : "Arial",
									"fontsize" : 13.0,
									"id" : "obj-7",
									"linecount" : 2,
									"maxclass" : "comment",
									"numinlets" : 1,
									"numoutlets" : 0,
									"patching_rect" : [ 187.5, 83.0, 105.0, 40.0 ],
									"text" : "example of command list"
								}

							}
, 							{
								"box" : 								{
									"fontname" : "Arial",
									"fontsize" : 13.0,
									"id" : "obj-22",
									"linecount" : 4,
									"maxclass" : "message",
									"numinlets" : 2,
									"numoutlets" : 1,
									"outlettype" : [ "" ],
									"patching_rect" : [ 300.0, 70.0, 278.0, 64.0 ],
									"text" : "set_line_width 2, ovalarc 125 125 75 120 0. 6.28, stroke, ovalarc 125 125 120 75 0. 6.28, stroke, ovalarc 125 125 37 50 0 6.28, stroke, ovalarc 125 125 50 37 0. 6.28, stroke"
								}

							}
, 							{
								"box" : 								{
									"bubble" : 1,
									"fontname" : "Arial",
									"fontsize" : 13.0,
									"id" : "obj-16",
									"maxclass" : "comment",
									"numinlets" : 1,
									"numoutlets" : 0,
									"patching_rect" : [ 410.0, 346.0, 101.0, 25.0 ],
									"text" : "move cursor"
								}

							}
, 							{
								"box" : 								{
									"bubble" : 1,
									"fontname" : "Arial",
									"fontsize" : 13.0,
									"id" : "obj-15",
									"maxclass" : "comment",
									"numinlets" : 1,
									"numoutlets" : 0,
									"patching_rect" : [ 502.5, 378.0, 149.0, 25.0 ],
									"text" : "add curved segment"
								}

							}
, 							{
								"box" : 								{
									"fontname" : "Arial",
									"fontsize" : 13.0,
									"id" : "obj-14",
									"maxclass" : "message",
									"numinlets" : 2,
									"numoutlets" : 1,
									"outlettype" : [ "" ],
									"patching_rect" : [ 302.5, 349.0, 106.0, 19.0 ],
									"text" : "move_to 100 50"
								}

							}
, 							{
								"box" : 								{
									"fontname" : "Arial",
									"fontsize" : 13.0,
									"id" : "obj-3",
									"maxclass" : "message",
									"numinlets" : 2,
									"numoutlets" : 1,
									"outlettype" : [ "" ],
									"patching_rect" : [ 302.5, 381.0, 196.0, 19.0 ],
									"text" : "curve_to 100 50 125 90 150 50"
								}

							}
, 							{
								"box" : 								{
									"fontname" : "Arial",
									"fontsize" : 13.0,
									"id" : "obj-1",
									"maxclass" : "message",
									"numinlets" : 2,
									"numoutlets" : 1,
									"outlettype" : [ "" ],
									"patching_rect" : [ 302.5, 258.0, 47.0, 19.0 ],
									"text" : "stroke"
								}

							}
, 							{
								"box" : 								{
									"fontname" : "Arial",
									"fontsize" : 13.0,
									"id" : "obj-36",
									"maxclass" : "message",
									"numinlets" : 2,
									"numoutlets" : 1,
									"outlettype" : [ "" ],
									"patching_rect" : [ 302.5, 318.0, 181.0, 19.0 ],
									"text" : "curve_to 50 50 75 10 100 50"
								}

							}
, 							{
								"box" : 								{
									"fontname" : "Arial",
									"fontsize" : 13.0,
									"id" : "obj-35",
									"maxclass" : "message",
									"numinlets" : 2,
									"numoutlets" : 1,
									"outlettype" : [ "" ],
									"patching_rect" : [ 302.5, 230.0, 95.0, 19.0 ],
									"text" : "line_to 50 150"
								}

							}
, 							{
								"box" : 								{
									"fontname" : "Arial",
									"fontsize" : 13.0,
									"id" : "obj-34",
									"maxclass" : "message",
									"numinlets" : 2,
									"numoutlets" : 1,
									"outlettype" : [ "" ],
									"patching_rect" : [ 302.5, 288.0, 106.0, 19.0 ],
									"text" : "move_to 50 150"
								}

							}
, 							{
								"box" : 								{
									"bubble" : 1,
									"fontname" : "Arial",
									"fontsize" : 13.0,
									"id" : "obj-32",
									"maxclass" : "comment",
									"numinlets" : 1,
									"numoutlets" : 0,
									"patching_rect" : [ 356.0, 255.0, 81.0, 25.0 ],
									"text" : "draw line"
								}

							}
, 							{
								"box" : 								{
									"bubble" : 1,
									"fontname" : "Arial",
									"fontsize" : 13.0,
									"id" : "obj-31",
									"maxclass" : "comment",
									"numinlets" : 1,
									"numoutlets" : 0,
									"patching_rect" : [ 342.5, 445.0, 70.0, 25.0 ],
									"text" : "fill path"
								}

							}
, 							{
								"box" : 								{
									"bubble" : 1,
									"fontname" : "Arial",
									"fontsize" : 13.0,
									"id" : "obj-30",
									"maxclass" : "comment",
									"numinlets" : 1,
									"numoutlets" : 0,
									"patching_rect" : [ 384.5, 412.5, 139.0, 25.0 ],
									"text" : "close drawing path"
								}

							}
, 							{
								"box" : 								{
									"bubble" : 1,
									"fontname" : "Arial",
									"fontsize" : 13.0,
									"id" : "obj-29",
									"maxclass" : "comment",
									"numinlets" : 1,
									"numoutlets" : 0,
									"patching_rect" : [ 492.5, 315.0, 149.0, 25.0 ],
									"text" : "add curved segment"
								}

							}
, 							{
								"box" : 								{
									"bubble" : 1,
									"fontname" : "Arial",
									"fontsize" : 13.0,
									"id" : "obj-28",
									"maxclass" : "comment",
									"numinlets" : 1,
									"numoutlets" : 0,
									"patching_rect" : [ 410.0, 227.0, 130.0, 25.0 ],
									"text" : "add line segment"
								}

							}
, 							{
								"box" : 								{
									"bubble" : 1,
									"fontname" : "Arial",
									"fontsize" : 13.0,
									"id" : "obj-27",
									"maxclass" : "comment",
									"numinlets" : 1,
									"numoutlets" : 0,
									"patching_rect" : [ 417.5, 285.0, 101.0, 25.0 ],
									"text" : "move cursor"
								}

							}
, 							{
								"box" : 								{
									"color" : [ 0.317647, 0.709804, 0.321569, 1.0 ],
									"fontname" : "Arial",
									"fontsize" : 13.0,
									"id" : "obj-25",
									"maxclass" : "newobj",
									"numinlets" : 0,
									"numoutlets" : 1,
									"outlettype" : [ "" ],
									"patching_rect" : [ 50.0, 165.0, 66.0, 21.0 ],
									"text" : "r drawme"
								}

							}
, 							{
								"box" : 								{
									"color" : [ 0.317647, 0.709804, 0.321569, 1.0 ],
									"fontname" : "Arial",
									"fontsize" : 13.0,
									"id" : "obj-24",
									"maxclass" : "newobj",
									"numinlets" : 1,
									"numoutlets" : 0,
									"patching_rect" : [ 302.5, 482.0, 68.0, 21.0 ],
									"text" : "s drawme"
								}

							}
, 							{
								"box" : 								{
									"fontname" : "Arial",
									"fontsize" : 13.0,
									"id" : "obj-9",
									"maxclass" : "message",
									"numinlets" : 2,
									"numoutlets" : 1,
									"outlettype" : [ "" ],
									"patching_rect" : [ 302.5, 415.5, 75.0, 19.0 ],
									"text" : "close_path"
								}

							}
, 							{
								"box" : 								{
									"fontname" : "Arial",
									"fontsize" : 13.0,
									"id" : "obj-23",
									"maxclass" : "message",
									"numinlets" : 2,
									"numoutlets" : 1,
									"outlettype" : [ "" ],
									"patching_rect" : [ 302.5, 448.0, 35.0, 19.0 ],
									"text" : "fill"
								}

							}
, 							{
								"box" : 								{
									"fontname" : "Arial",
									"fontsize" : 13.0,
									"id" : "obj-2",
									"maxclass" : "comment",
									"numinlets" : 1,
									"numoutlets" : 0,
									"patching_rect" : [ 10.0, 70.0, 175.0, 21.0 ],
									"text" : "Simple drawing commands:"
								}

							}
, 							{
								"box" : 								{
									"border" : 0,
									"filename" : "helpname.js",
									"id" : "obj-4",
									"jsarguments" : [ "jit.mgraphics" ],
									"maxclass" : "jsui",
									"numinlets" : 1,
									"numoutlets" : 1,
									"outlettype" : [ "" ],
									"parameter_enable" : 0,
									"patching_rect" : [ 10.0, 10.0, 305.0, 55.0 ]
								}

							}
, 							{
								"box" : 								{
									"bubble" : 1,
									"fontname" : "Arial",
									"fontsize" : 13.0,
									"id" : "obj-148",
									"maxclass" : "comment",
									"numinlets" : 1,
									"numoutlets" : 0,
									"patching_rect" : [ 331.0, 157.5, 101.0, 25.0 ],
									"text" : "click to clear"
								}

							}
, 							{
								"box" : 								{
									"id" : "obj-43",
									"maxclass" : "button",
									"numinlets" : 1,
									"numoutlets" : 1,
									"outlettype" : [ "bang" ],
									"patching_rect" : [ 305.5, 157.5, 20.0, 20.0 ]
								}

							}
, 							{
								"box" : 								{
									"fontname" : "Arial",
									"fontsize" : 13.0,
									"id" : "obj-41",
									"maxclass" : "newobj",
									"numinlets" : 1,
									"numoutlets" : 1,
									"outlettype" : [ "" ],
									"patcher" : 									{
										"fileversion" : 1,
										"appversion" : 										{
											"major" : 6,
											"minor" : 0,
											"revision" : 2
										}
,
										"rect" : [ 219.0, 87.0, 278.0, 205.0 ],
										"bglocked" : 0,
										"openinpresentation" : 0,
										"default_fontsize" : 12.0,
										"default_fontface" : 0,
										"default_fontname" : "Arial",
										"gridonopen" : 0,
										"gridsize" : [ 15.0, 15.0 ],
										"gridsnaponopen" : 0,
										"statusbarvisible" : 2,
										"toolbarvisible" : 1,
										"boxanimatetime" : 200,
										"imprint" : 0,
										"enablehscroll" : 1,
										"enablevscroll" : 1,
										"devicewidth" : 0.0,
										"description" : "",
										"digest" : "",
										"tags" : "",
										"boxes" : [ 											{
												"box" : 												{
													"fontname" : "Arial",
													"fontsize" : 12.0,
													"id" : "obj-4",
													"maxclass" : "newobj",
													"numinlets" : 1,
													"numoutlets" : 1,
													"outlettype" : [ "bang" ],
													"patching_rect" : [ 105.0, 32.0, 61.0, 20.0 ],
													"text" : "loadbang"
												}

											}
, 											{
												"box" : 												{
													"comment" : "",
													"id" : "obj-3",
													"maxclass" : "inlet",
													"numinlets" : 0,
													"numoutlets" : 1,
													"outlettype" : [ "bang" ],
													"patching_rect" : [ 45.0, 29.5, 25.0, 25.0 ]
												}

											}
, 											{
												"box" : 												{
													"fontname" : "Arial",
													"fontsize" : 12.0,
													"id" : "obj-30",
													"linecount" : 3,
													"maxclass" : "message",
													"numinlets" : 2,
													"numoutlets" : 1,
													"outlettype" : [ "" ],
													"patching_rect" : [ 45.0, 90.0, 190.0, 46.0 ],
													"text" : "set_source_rgba 1 1 1 1, paint, set_source_rgba 0 0 0 1, identity_matrix, move_to 0. 0."
												}

											}
, 											{
												"box" : 												{
													"comment" : "",
													"id" : "obj-40",
													"maxclass" : "outlet",
													"numinlets" : 1,
													"numoutlets" : 0,
													"patching_rect" : [ 45.0, 165.0, 25.0, 25.0 ]
												}

											}
 ],
										"lines" : [ 											{
												"patchline" : 												{
													"destination" : [ "obj-30", 0 ],
													"disabled" : 0,
													"hidden" : 0,
													"source" : [ "obj-3", 0 ]
												}

											}
, 											{
												"patchline" : 												{
													"destination" : [ "obj-40", 0 ],
													"disabled" : 0,
													"hidden" : 0,
													"source" : [ "obj-30", 0 ]
												}

											}
, 											{
												"patchline" : 												{
													"destination" : [ "obj-30", 0 ],
													"disabled" : 0,
													"hidden" : 0,
													"source" : [ "obj-4", 0 ]
												}

											}
 ],
										"dependency_cache" : [  ]
									}
,
									"patching_rect" : [ 305.5, 190.0, 89.0, 21.0 ],
									"saved_object_attributes" : 									{
										"globalpatchername" : "",
										"fontface" : 0,
										"fontsize" : 12.0,
										"default_fontface" : 0,
										"digest" : "",
										"default_fontname" : "Arial",
										"fontname" : "Arial",
										"tags" : "",
										"default_fontsize" : 12.0,
										"description" : ""
									}
,
									"text" : "patcher reset"
								}

							}
, 							{
								"box" : 								{
									"border" : 1.0,
									"id" : "obj-12",
									"maxclass" : "jit.pwindow",
									"numinlets" : 1,
									"numoutlets" : 2,
									"outlettype" : [ "", "" ],
									"patching_rect" : [ 30.0, 260.0, 250.0, 250.0 ],
									"presentation_rect" : [ 0.0, 0.0, 250.0, 250.0 ]
								}

							}
, 							{
								"box" : 								{
									"fontname" : "Arial",
									"fontsize" : 13.0,
									"id" : "obj-10",
									"maxclass" : "flonum",
									"numinlets" : 1,
									"numoutlets" : 2,
									"outlettype" : [ "float", "bang" ],
									"parameter_enable" : 0,
									"patching_rect" : [ 82.0, 102.0, 50.0, 21.0 ]
								}

							}
, 							{
								"box" : 								{
									"id" : "obj-8",
									"maxclass" : "toggle",
									"numinlets" : 1,
									"numoutlets" : 1,
									"outlettype" : [ "int" ],
									"parameter_enable" : 0,
									"patching_rect" : [ 30.0, 102.0, 20.0, 20.0 ]
								}

							}
, 							{
								"box" : 								{
									"fontname" : "Arial",
									"fontsize" : 13.0,
									"id" : "obj-6",
									"maxclass" : "newobj",
									"numinlets" : 2,
									"numoutlets" : 1,
									"outlettype" : [ "bang" ],
									"patching_rect" : [ 30.0, 132.0, 71.0, 21.0 ],
									"text" : "qmetro 33"
								}

							}
, 							{
								"box" : 								{
									"fontname" : "Arial",
									"fontsize" : 13.0,
									"id" : "obj-5",
									"maxclass" : "newobj",
									"numinlets" : 1,
									"numoutlets" : 2,
									"outlettype" : [ "jit_matrix", "" ],
									"patching_rect" : [ 30.0, 230.0, 138.0, 21.0 ],
									"text" : "jit.mgraphics 250 250"
								}

							}
 ],
						"lines" : [ 							{
								"patchline" : 								{
									"destination" : [ "obj-24", 0 ],
									"disabled" : 0,
									"hidden" : 0,
									"source" : [ "obj-1", 0 ]
								}

							}
, 							{
								"patchline" : 								{
									"destination" : [ "obj-6", 1 ],
									"disabled" : 0,
									"hidden" : 0,
									"source" : [ "obj-10", 0 ]
								}

							}
, 							{
								"patchline" : 								{
									"destination" : [ "obj-24", 0 ],
									"disabled" : 0,
									"hidden" : 0,
									"source" : [ "obj-14", 0 ]
								}

							}
, 							{
								"patchline" : 								{
									"destination" : [ "obj-5", 0 ],
									"disabled" : 0,
									"hidden" : 0,
									"source" : [ "obj-22", 0 ]
								}

							}
, 							{
								"patchline" : 								{
									"destination" : [ "obj-24", 0 ],
									"disabled" : 0,
									"hidden" : 0,
									"source" : [ "obj-23", 0 ]
								}

							}
, 							{
								"patchline" : 								{
									"destination" : [ "obj-5", 0 ],
									"disabled" : 0,
									"hidden" : 0,
									"source" : [ "obj-25", 0 ]
								}

							}
, 							{
								"patchline" : 								{
									"destination" : [ "obj-24", 0 ],
									"disabled" : 0,
									"hidden" : 0,
									"source" : [ "obj-3", 0 ]
								}

							}
, 							{
								"patchline" : 								{
									"destination" : [ "obj-24", 0 ],
									"disabled" : 0,
									"hidden" : 0,
									"source" : [ "obj-34", 0 ]
								}

							}
, 							{
								"patchline" : 								{
									"destination" : [ "obj-24", 0 ],
									"disabled" : 0,
									"hidden" : 0,
									"source" : [ "obj-35", 0 ]
								}

							}
, 							{
								"patchline" : 								{
									"destination" : [ "obj-24", 0 ],
									"disabled" : 0,
									"hidden" : 0,
									"source" : [ "obj-36", 0 ]
								}

							}
, 							{
								"patchline" : 								{
									"destination" : [ "obj-5", 0 ],
									"disabled" : 0,
									"hidden" : 0,
									"source" : [ "obj-41", 0 ]
								}

							}
, 							{
								"patchline" : 								{
									"destination" : [ "obj-41", 0 ],
									"disabled" : 0,
									"hidden" : 0,
									"source" : [ "obj-43", 0 ]
								}

							}
, 							{
								"patchline" : 								{
									"destination" : [ "obj-12", 0 ],
									"disabled" : 0,
									"hidden" : 0,
									"source" : [ "obj-5", 0 ]
								}

							}
, 							{
								"patchline" : 								{
									"destination" : [ "obj-5", 0 ],
									"disabled" : 0,
									"hidden" : 0,
									"source" : [ "obj-6", 0 ]
								}

							}
, 							{
								"patchline" : 								{
									"destination" : [ "obj-6", 0 ],
									"disabled" : 0,
									"hidden" : 0,
									"source" : [ "obj-8", 0 ]
								}

							}
, 							{
								"patchline" : 								{
									"destination" : [ "obj-24", 0 ],
									"disabled" : 0,
									"hidden" : 0,
									"source" : [ "obj-9", 0 ]
								}

							}
 ],
						"dependency_cache" : [ 							{
								"name" : "helpname.js",
								"bootpath" : "/Applications/Max6/Cycling '74/help-resources",
								"type" : "TEXT",
								"implicit" : 1
							}
 ]
					}
,
					"patching_rect" : [ 10.0, 120.0, 112.0, 20.0 ],
					"saved_object_attributes" : 					{
						"globalpatchername" : "",
						"fontface" : 0,
						"fontsize" : 13.0,
						"default_fontface" : 0,
						"digest" : "",
						"default_fontname" : "Arial",
						"fontname" : "Arial",
						"tags" : "",
						"default_fontsize" : 13.0,
						"description" : ""
					}
,
					"text" : "p \"simple drawing\"",
					"varname" : "basic_tab[1]"
				}

			}
, 			{
				"box" : 				{
					"fontname" : "Arial",
					"fontsize" : 12.0,
					"id" : "obj-6",
					"maxclass" : "message",
					"numinlets" : 2,
					"numoutlets" : 1,
					"outlettype" : [ "" ],
					"patching_rect" : [ 295.0, 335.0, 92.0, 18.0 ],
					"text" : "resize 700 640"
				}

			}
, 			{
				"box" : 				{
					"fontname" : "Arial",
					"fontsize" : 12.0,
					"id" : "obj-1",
					"maxclass" : "newobj",
					"numinlets" : 1,
					"numoutlets" : 1,
					"outlettype" : [ "" ],
					"patching_rect" : [ 290.0, 365.0, 154.0, 20.0 ],
					"saved_object_attributes" : 					{
						"parameter_enable" : 0
					}
,
					"text" : "js helpstarter jit.mgraphics"
				}

			}
, 			{
				"box" : 				{
					"fontname" : "Arial",
					"fontsize" : 12.0,
					"id" : "obj-2",
					"maxclass" : "newobj",
					"numinlets" : 0,
					"numoutlets" : 0,
					"patcher" : 					{
						"fileversion" : 1,
						"appversion" : 						{
							"major" : 6,
							"minor" : 0,
							"revision" : 2
						}
,
						"rect" : [ 100.0, 126.0, 688.0, 521.0 ],
						"bglocked" : 0,
						"openinpresentation" : 0,
						"default_fontsize" : 13.0,
						"default_fontface" : 0,
						"default_fontname" : "Arial",
						"gridonopen" : 0,
						"gridsize" : [ 5.0, 5.0 ],
						"gridsnaponopen" : 0,
						"statusbarvisible" : 2,
						"toolbarvisible" : 1,
						"boxanimatetime" : 200,
						"imprint" : 0,
						"enablehscroll" : 1,
						"enablevscroll" : 1,
						"devicewidth" : 0.0,
						"description" : "",
						"digest" : "",
						"tags" : "",
						"showontab" : 1,
						"boxes" : [ 							{
								"box" : 								{
									"bubble" : 1,
									"fontname" : "Arial",
									"fontsize" : 13.0,
									"id" : "obj-13",
									"linecount" : 2,
									"maxclass" : "comment",
									"numinlets" : 1,
									"numoutlets" : 0,
									"patching_rect" : [ 538.25, 362.0, 118.0, 40.0 ],
									"text" : "draw a rounded rectangle"
								}

							}
, 							{
								"box" : 								{
									"fontname" : "Arial",
									"fontsize" : 13.0,
									"id" : "obj-11",
									"linecount" : 2,
									"maxclass" : "message",
									"numinlets" : 2,
									"numoutlets" : 1,
									"outlettype" : [ "" ],
									"patching_rect" : [ 365.0, 365.0, 169.0, 34.0 ],
									"text" : "rectangle_rounded 50 50 100 20 8 8 8 8, stroke"
								}

							}
, 							{
								"box" : 								{
									"bubble" : 1,
									"bubbleside" : 0,
									"fontname" : "Arial",
									"fontsize" : 13.0,
									"id" : "obj-9",
									"maxclass" : "comment",
									"numinlets" : 1,
									"numoutlets" : 0,
									"patching_rect" : [ 115.0, 465.0, 201.0, 40.0 ],
									"text" : "click-drag to draw in jit.pwindow"
								}

							}
, 							{
								"box" : 								{
									"bubble" : 1,
									"fontname" : "Arial",
									"fontsize" : 13.0,
									"id" : "obj-7",
									"maxclass" : "comment",
									"numinlets" : 1,
									"numoutlets" : 0,
									"patching_rect" : [ 538.25, 329.5, 82.0, 25.0 ],
									"text" : "draw text"
								}

							}
, 							{
								"box" : 								{
									"fontname" : "Arial",
									"fontsize" : 13.0,
									"id" : "obj-4",
									"linecount" : 2,
									"maxclass" : "message",
									"numinlets" : 2,
									"numoutlets" : 1,
									"outlettype" : [ "" ],
									"patching_rect" : [ 365.0, 325.0, 169.0, 34.0 ],
									"text" : "move_to 30 30, show_text \"time for text\", fill"
								}

							}
, 							{
								"box" : 								{
									"bubble" : 1,
									"fontname" : "Arial",
									"fontsize" : 13.0,
									"id" : "obj-3",
									"maxclass" : "comment",
									"numinlets" : 1,
									"numoutlets" : 0,
									"patching_rect" : [ 522.25, 292.0, 98.0, 25.0 ],
									"text" : "draw ellipse"
								}

							}
, 							{
								"box" : 								{
									"fontname" : "Arial",
									"fontsize" : 13.0,
									"id" : "obj-1",
									"maxclass" : "message",
									"numinlets" : 2,
									"numoutlets" : 1,
									"outlettype" : [ "" ],
									"patching_rect" : [ 365.0, 295.0, 143.0, 19.0 ],
									"text" : "ellipse 10 10 40 70, fill"
								}

							}
, 							{
								"box" : 								{
									"bubble" : 1,
									"fontname" : "Arial",
									"fontsize" : 13.0,
									"id" : "obj-148",
									"maxclass" : "comment",
									"numinlets" : 1,
									"numoutlets" : 0,
									"patching_rect" : [ 180.0, 122.5, 101.0, 25.0 ],
									"text" : "click to clear"
								}

							}
, 							{
								"box" : 								{
									"bubble" : 1,
									"fontname" : "Arial",
									"fontsize" : 13.0,
									"id" : "obj-140",
									"maxclass" : "comment",
									"numinlets" : 1,
									"numoutlets" : 0,
									"patching_rect" : [ 549.75, 262.0, 115.0, 25.0 ],
									"text" : "draw rectangle"
								}

							}
, 							{
								"box" : 								{
									"bubble" : 1,
									"fontname" : "Arial",
									"fontsize" : 13.0,
									"id" : "obj-139",
									"maxclass" : "comment",
									"numinlets" : 1,
									"numoutlets" : 0,
									"patching_rect" : [ 495.0, 178.0, 78.0, 25.0 ],
									"text" : "set color"
								}

							}
, 							{
								"box" : 								{
									"fontname" : "Arial",
									"fontsize" : 13.0,
									"id" : "obj-138",
									"maxclass" : "jit.fpsgui",
									"numinlets" : 1,
									"numoutlets" : 2,
									"outlettype" : [ "", "" ],
									"patching_rect" : [ 20.0, 465.0, 80.0, 37.0 ]
								}

							}
, 							{
								"box" : 								{
									"bubble" : 1,
									"fontname" : "Arial",
									"fontsize" : 13.0,
									"id" : "obj-137",
									"maxclass" : "comment",
									"numinlets" : 1,
									"numoutlets" : 0,
									"patching_rect" : [ 422.0, 122.5, 118.0, 25.0 ],
									"text" : "set alpha value"
								}

							}
, 							{
								"box" : 								{
									"fontname" : "Arial",
									"fontsize" : 13.0,
									"id" : "obj-136",
									"maxclass" : "newobj",
									"numinlets" : 1,
									"numoutlets" : 0,
									"patching_rect" : [ 365.0, 454.0, 138.0, 21.0 ],
									"text" : "print cmds @popup 1"
								}

							}
, 							{
								"box" : 								{
									"bubble" : 1,
									"fontname" : "Arial",
									"fontsize" : 13.0,
									"id" : "obj-134",
									"linecount" : 2,
									"maxclass" : "comment",
									"numinlets" : 1,
									"numoutlets" : 0,
									"patching_rect" : [ 522.25, 415.5, 142.5, 40.0 ],
									"text" : "subpatcher lets you draw in jit.pwindow"
								}

							}
, 							{
								"box" : 								{
									"fontname" : "Arial",
									"fontsize" : 13.0,
									"id" : "obj-132",
									"maxclass" : "newobj",
									"numinlets" : 1,
									"numoutlets" : 1,
									"outlettype" : [ "" ],
									"patcher" : 									{
										"fileversion" : 1,
										"appversion" : 										{
											"major" : 6,
											"minor" : 0,
											"revision" : 2
										}
,
										"rect" : [ 0.0, 0.0, 640.0, 480.0 ],
										"bglocked" : 0,
										"openinpresentation" : 0,
										"default_fontsize" : 12.0,
										"default_fontface" : 0,
										"default_fontname" : "Arial",
										"gridonopen" : 0,
										"gridsize" : [ 5.0, 5.0 ],
										"gridsnaponopen" : 0,
										"statusbarvisible" : 2,
										"toolbarvisible" : 1,
										"boxanimatetime" : 200,
										"imprint" : 0,
										"enablehscroll" : 1,
										"enablevscroll" : 1,
										"devicewidth" : 0.0,
										"description" : "",
										"digest" : "",
										"tags" : "",
										"boxes" : [ 											{
												"box" : 												{
													"fontname" : "Arial",
													"fontsize" : 13.0,
													"id" : "obj-116",
													"maxclass" : "newobj",
													"numinlets" : 1,
													"numoutlets" : 2,
													"outlettype" : [ "bang", "" ],
													"patching_rect" : [ 50.0, 219.0, 40.0, 21.0 ],
													"text" : "t b l"
												}

											}
, 											{
												"box" : 												{
													"fontname" : "Arial",
													"fontsize" : 13.0,
													"id" : "obj-115",
													"maxclass" : "newobj",
													"numinlets" : 2,
													"numoutlets" : 1,
													"outlettype" : [ "int" ],
													"patching_rect" : [ 145.0, 250.0, 32.5, 21.0 ],
													"text" : "int"
												}

											}
, 											{
												"box" : 												{
													"fontname" : "Arial",
													"fontsize" : 13.0,
													"id" : "obj-106",
													"maxclass" : "newobj",
													"numinlets" : 2,
													"numoutlets" : 1,
													"outlettype" : [ "" ],
													"patching_rect" : [ 50.0, 188.0, 74.0, 21.0 ],
													"text" : "pack 0 0"
												}

											}
, 											{
												"box" : 												{
													"id" : "obj-86",
													"maxclass" : "gswitch2",
													"numinlets" : 2,
													"numoutlets" : 2,
													"outlettype" : [ "", "" ],
													"parameter_enable" : 0,
													"patching_rect" : [ 50.0, 280.0, 39.0, 32.0 ]
												}

											}
, 											{
												"box" : 												{
													"fontname" : "Arial",
													"fontsize" : 13.0,
													"id" : "obj-31",
													"maxclass" : "newobj",
													"numinlets" : 1,
													"numoutlets" : 3,
													"outlettype" : [ "", "int", "int" ],
													"patching_rect" : [ 158.5, 216.0, 54.0, 21.0 ],
													"text" : "change"
												}

											}
, 											{
												"box" : 												{
													"fontname" : "Arial",
													"fontsize" : 13.0,
													"id" : "obj-29",
													"maxclass" : "message",
													"numinlets" : 2,
													"numoutlets" : 1,
													"outlettype" : [ "" ],
													"patching_rect" : [ 158.5, 330.0, 227.0, 19.0 ],
													"text" : "line_to $1 $2, stroke, move_to $1 $2"
												}

											}
, 											{
												"box" : 												{
													"id" : "obj-25",
													"maxclass" : "toggle",
													"numinlets" : 1,
													"numoutlets" : 1,
													"outlettype" : [ "int" ],
													"parameter_enable" : 0,
													"patching_rect" : [ 159.0, 160.0, 20.0, 20.0 ]
												}

											}
, 											{
												"box" : 												{
													"fontname" : "Arial",
													"fontsize" : 13.0,
													"id" : "obj-23",
													"maxclass" : "number",
													"numinlets" : 1,
													"numoutlets" : 2,
													"outlettype" : [ "int", "bang" ],
													"parameter_enable" : 0,
													"patching_rect" : [ 105.0, 160.0, 50.0, 21.0 ]
												}

											}
, 											{
												"box" : 												{
													"fontname" : "Arial",
													"fontsize" : 13.0,
													"id" : "obj-22",
													"maxclass" : "number",
													"numinlets" : 1,
													"numoutlets" : 2,
													"outlettype" : [ "int", "bang" ],
													"parameter_enable" : 0,
													"patching_rect" : [ 50.0, 160.0, 50.0, 21.0 ]
												}

											}
, 											{
												"box" : 												{
													"fontname" : "Arial",
													"fontsize" : 13.0,
													"id" : "obj-20",
													"maxclass" : "newobj",
													"numinlets" : 1,
													"numoutlets" : 3,
													"outlettype" : [ "int", "int", "int" ],
													"patching_rect" : [ 50.0, 130.0, 128.0, 21.0 ],
													"text" : "unpack 0 0 0"
												}

											}
, 											{
												"box" : 												{
													"fontname" : "Arial",
													"fontsize" : 13.0,
													"id" : "obj-14",
													"maxclass" : "message",
													"numinlets" : 2,
													"numoutlets" : 1,
													"outlettype" : [ "" ],
													"patching_rect" : [ 50.0, 330.0, 99.0, 19.0 ],
													"text" : "move_to $1 $2"
												}

											}
, 											{
												"box" : 												{
													"fontname" : "Arial",
													"fontsize" : 13.0,
													"id" : "obj-128",
													"maxclass" : "newobj",
													"numinlets" : 2,
													"numoutlets" : 2,
													"outlettype" : [ "", "" ],
													"patching_rect" : [ 50.0, 100.0, 86.0, 21.0 ],
													"text" : "route mouse"
												}

											}
, 											{
												"box" : 												{
													"comment" : "",
													"id" : "obj-130",
													"maxclass" : "inlet",
													"numinlets" : 0,
													"numoutlets" : 1,
													"outlettype" : [ "" ],
													"patching_rect" : [ 50.0, 40.0, 25.0, 25.0 ]
												}

											}
, 											{
												"box" : 												{
													"comment" : "",
													"id" : "obj-131",
													"maxclass" : "outlet",
													"numinlets" : 1,
													"numoutlets" : 0,
													"patching_rect" : [ 99.25, 409.0, 25.0, 25.0 ]
												}

											}
 ],
										"lines" : [ 											{
												"patchline" : 												{
													"destination" : [ "obj-116", 0 ],
													"disabled" : 0,
													"hidden" : 0,
													"source" : [ "obj-106", 0 ]
												}

											}
, 											{
												"patchline" : 												{
													"destination" : [ "obj-86", 0 ],
													"disabled" : 0,
													"hidden" : 0,
													"source" : [ "obj-115", 0 ]
												}

											}
, 											{
												"patchline" : 												{
													"destination" : [ "obj-115", 0 ],
													"disabled" : 0,
													"hidden" : 0,
													"source" : [ "obj-116", 0 ]
												}

											}
, 											{
												"patchline" : 												{
													"destination" : [ "obj-86", 1 ],
													"disabled" : 0,
													"hidden" : 0,
													"source" : [ "obj-116", 1 ]
												}

											}
, 											{
												"patchline" : 												{
													"destination" : [ "obj-20", 0 ],
													"disabled" : 0,
													"hidden" : 0,
													"source" : [ "obj-128", 0 ]
												}

											}
, 											{
												"patchline" : 												{
													"destination" : [ "obj-128", 0 ],
													"disabled" : 0,
													"hidden" : 0,
													"source" : [ "obj-130", 0 ]
												}

											}
, 											{
												"patchline" : 												{
													"destination" : [ "obj-131", 0 ],
													"disabled" : 0,
													"hidden" : 0,
													"source" : [ "obj-14", 0 ]
												}

											}
, 											{
												"patchline" : 												{
													"destination" : [ "obj-22", 0 ],
													"disabled" : 0,
													"hidden" : 0,
													"midpoints" : [ 59.5, 155.0, 59.5, 155.0 ],
													"source" : [ "obj-20", 0 ]
												}

											}
, 											{
												"patchline" : 												{
													"destination" : [ "obj-23", 0 ],
													"disabled" : 0,
													"hidden" : 0,
													"midpoints" : [ 114.0, 155.0, 114.5, 155.0 ],
													"source" : [ "obj-20", 1 ]
												}

											}
, 											{
												"patchline" : 												{
													"destination" : [ "obj-25", 0 ],
													"disabled" : 0,
													"hidden" : 0,
													"midpoints" : [ 168.5, 155.0, 168.5, 155.0 ],
													"source" : [ "obj-20", 2 ]
												}

											}
, 											{
												"patchline" : 												{
													"destination" : [ "obj-106", 0 ],
													"disabled" : 0,
													"hidden" : 0,
													"source" : [ "obj-22", 0 ]
												}

											}
, 											{
												"patchline" : 												{
													"destination" : [ "obj-106", 1 ],
													"disabled" : 0,
													"hidden" : 0,
													"source" : [ "obj-23", 0 ]
												}

											}
, 											{
												"patchline" : 												{
													"destination" : [ "obj-31", 0 ],
													"disabled" : 0,
													"hidden" : 0,
													"source" : [ "obj-25", 0 ]
												}

											}
, 											{
												"patchline" : 												{
													"destination" : [ "obj-131", 0 ],
													"disabled" : 0,
													"hidden" : 0,
													"source" : [ "obj-29", 0 ]
												}

											}
, 											{
												"patchline" : 												{
													"destination" : [ "obj-115", 1 ],
													"disabled" : 0,
													"hidden" : 0,
													"source" : [ "obj-31", 0 ]
												}

											}
, 											{
												"patchline" : 												{
													"destination" : [ "obj-14", 0 ],
													"disabled" : 0,
													"hidden" : 0,
													"source" : [ "obj-86", 0 ]
												}

											}
, 											{
												"patchline" : 												{
													"destination" : [ "obj-29", 0 ],
													"disabled" : 0,
													"hidden" : 0,
													"source" : [ "obj-86", 1 ]
												}

											}
 ],
										"dependency_cache" : [  ]
									}
,
									"patching_rect" : [ 365.0, 425.0, 148.0, 21.0 ],
									"saved_object_attributes" : 									{
										"globalpatchername" : "",
										"fontface" : 0,
										"fontsize" : 12.0,
										"default_fontface" : 0,
										"digest" : "",
										"default_fontname" : "Arial",
										"fontname" : "Arial",
										"tags" : "",
										"default_fontsize" : 12.0,
										"description" : ""
									}
,
									"text" : "patcher mouseDrawing"
								}

							}
, 							{
								"box" : 								{
									"fontname" : "Arial",
									"fontsize" : 13.0,
									"id" : "obj-83",
									"maxclass" : "message",
									"numinlets" : 2,
									"numoutlets" : 1,
									"outlettype" : [ "" ],
									"patching_rect" : [ 365.0, 153.0, 62.0, 19.0 ],
									"text" : "alpha $1"
								}

							}
, 							{
								"box" : 								{
									"fontname" : "Arial",
									"fontsize" : 12.0,
									"id" : "obj-74",
									"maxclass" : "flonum",
									"numinlets" : 1,
									"numoutlets" : 2,
									"outlettype" : [ "float", "bang" ],
									"parameter_enable" : 0,
									"patching_rect" : [ 365.0, 125.0, 50.0, 20.0 ]
								}

							}
, 							{
								"box" : 								{
									"fontname" : "Arial",
									"fontsize" : 13.0,
									"id" : "obj-64",
									"maxclass" : "message",
									"numinlets" : 2,
									"numoutlets" : 1,
									"outlettype" : [ "" ],
									"patching_rect" : [ 365.0, 234.0, 183.0, 19.0 ],
									"text" : "set_source_rgba $1 $2 $3 $4"
								}

							}
, 							{
								"box" : 								{
									"id" : "obj-62",
									"maxclass" : "swatch",
									"numinlets" : 3,
									"numoutlets" : 2,
									"outlettype" : [ "", "float" ],
									"parameter_enable" : 0,
									"patching_rect" : [ 365.0, 178.0, 120.0, 47.0 ]
								}

							}
, 							{
								"box" : 								{
									"fontname" : "Arial",
									"fontsize" : 13.0,
									"id" : "obj-60",
									"maxclass" : "message",
									"numinlets" : 2,
									"numoutlets" : 1,
									"outlettype" : [ "" ],
									"patching_rect" : [ 365.0, 265.0, 175.0, 19.0 ],
									"text" : "rectangle 150 150 50 50, fill"
								}

							}
, 							{
								"box" : 								{
									"id" : "obj-43",
									"maxclass" : "button",
									"numinlets" : 1,
									"numoutlets" : 1,
									"outlettype" : [ "bang" ],
									"patching_rect" : [ 155.0, 125.0, 20.0, 20.0 ]
								}

							}
, 							{
								"box" : 								{
									"fontname" : "Arial",
									"fontsize" : 13.0,
									"id" : "obj-41",
									"maxclass" : "newobj",
									"numinlets" : 1,
									"numoutlets" : 1,
									"outlettype" : [ "" ],
									"patcher" : 									{
										"fileversion" : 1,
										"appversion" : 										{
											"major" : 6,
											"minor" : 0,
											"revision" : 2
										}
,
										"rect" : [ 219.0, 87.0, 278.0, 205.0 ],
										"bglocked" : 0,
										"openinpresentation" : 0,
										"default_fontsize" : 12.0,
										"default_fontface" : 0,
										"default_fontname" : "Arial",
										"gridonopen" : 0,
										"gridsize" : [ 15.0, 15.0 ],
										"gridsnaponopen" : 0,
										"statusbarvisible" : 2,
										"toolbarvisible" : 1,
										"boxanimatetime" : 200,
										"imprint" : 0,
										"enablehscroll" : 1,
										"enablevscroll" : 1,
										"devicewidth" : 0.0,
										"description" : "",
										"digest" : "",
										"tags" : "",
										"boxes" : [ 											{
												"box" : 												{
													"fontname" : "Arial",
													"fontsize" : 12.0,
													"id" : "obj-4",
													"maxclass" : "newobj",
													"numinlets" : 1,
													"numoutlets" : 1,
													"outlettype" : [ "bang" ],
													"patching_rect" : [ 105.0, 32.0, 61.0, 20.0 ],
													"text" : "loadbang"
												}

											}
, 											{
												"box" : 												{
													"comment" : "",
													"id" : "obj-3",
													"maxclass" : "inlet",
													"numinlets" : 0,
													"numoutlets" : 1,
													"outlettype" : [ "bang" ],
													"patching_rect" : [ 45.0, 29.5, 25.0, 25.0 ]
												}

											}
, 											{
												"box" : 												{
													"fontname" : "Arial",
													"fontsize" : 12.0,
													"id" : "obj-30",
													"linecount" : 3,
													"maxclass" : "message",
													"numinlets" : 2,
													"numoutlets" : 1,
													"outlettype" : [ "" ],
													"patching_rect" : [ 45.0, 90.0, 190.0, 46.0 ],
													"text" : "set_source_rgba 1 1 1 1, paint, set_source_rgba 0 0 0 1, identity_matrix, move_to 0. 0."
												}

											}
, 											{
												"box" : 												{
													"comment" : "",
													"id" : "obj-40",
													"maxclass" : "outlet",
													"numinlets" : 1,
													"numoutlets" : 0,
													"patching_rect" : [ 45.0, 165.0, 25.0, 25.0 ]
												}

											}
 ],
										"lines" : [ 											{
												"patchline" : 												{
													"destination" : [ "obj-30", 0 ],
													"disabled" : 0,
													"hidden" : 0,
													"source" : [ "obj-3", 0 ]
												}

											}
, 											{
												"patchline" : 												{
													"destination" : [ "obj-40", 0 ],
													"disabled" : 0,
													"hidden" : 0,
													"source" : [ "obj-30", 0 ]
												}

											}
, 											{
												"patchline" : 												{
													"destination" : [ "obj-30", 0 ],
													"disabled" : 0,
													"hidden" : 0,
													"source" : [ "obj-4", 0 ]
												}

											}
 ],
										"dependency_cache" : [  ]
									}
,
									"patching_rect" : [ 154.5, 155.0, 89.0, 21.0 ],
									"saved_object_attributes" : 									{
										"globalpatchername" : "",
										"fontface" : 0,
										"fontsize" : 12.0,
										"default_fontface" : 0,
										"digest" : "",
										"default_fontname" : "Arial",
										"fontname" : "Arial",
										"tags" : "",
										"default_fontsize" : 12.0,
										"description" : ""
									}
,
									"text" : "patcher reset"
								}

							}
, 							{
								"box" : 								{
									"border" : 1.0,
									"id" : "obj-12",
									"maxclass" : "jit.pwindow",
									"numinlets" : 1,
									"numoutlets" : 2,
									"outlettype" : [ "", "" ],
									"patching_rect" : [ 20.0, 220.0, 320.0, 240.0 ]
								}

							}
, 							{
								"box" : 								{
									"fontname" : "Arial",
									"fontsize" : 13.0,
									"id" : "obj-10",
									"maxclass" : "flonum",
									"numinlets" : 1,
									"numoutlets" : 2,
									"outlettype" : [ "float", "bang" ],
									"parameter_enable" : 0,
									"patching_rect" : [ 72.0, 125.0, 50.0, 21.0 ]
								}

							}
, 							{
								"box" : 								{
									"id" : "obj-8",
									"maxclass" : "toggle",
									"numinlets" : 1,
									"numoutlets" : 1,
									"outlettype" : [ "int" ],
									"parameter_enable" : 0,
									"patching_rect" : [ 20.0, 125.0, 20.0, 20.0 ]
								}

							}
, 							{
								"box" : 								{
									"fontname" : "Arial",
									"fontsize" : 13.0,
									"id" : "obj-6",
									"maxclass" : "newobj",
									"numinlets" : 2,
									"numoutlets" : 1,
									"outlettype" : [ "bang" ],
									"patching_rect" : [ 20.0, 155.0, 71.0, 21.0 ],
									"text" : "qmetro 33"
								}

							}
, 							{
								"box" : 								{
									"fontname" : "Arial",
									"fontsize" : 13.0,
									"id" : "obj-5",
									"maxclass" : "newobj",
									"numinlets" : 1,
									"numoutlets" : 2,
									"outlettype" : [ "jit_matrix", "" ],
									"patching_rect" : [ 20.0, 188.0, 139.0, 21.0 ],
									"text" : "jit.mgraphics 320 240"
								}

							}
, 							{
								"box" : 								{
									"border" : 0,
									"filename" : "helpdetails.js",
									"id" : "obj-2",
									"jsarguments" : [ "jit.mgraphics", 95 ],
									"maxclass" : "jsui",
									"numinlets" : 1,
									"numoutlets" : 1,
									"outlettype" : [ "" ],
									"parameter_enable" : 0,
									"patching_rect" : [ 10.0, 10.0, 520.0, 95.0 ]
								}

							}
 ],
						"lines" : [ 							{
								"patchline" : 								{
									"destination" : [ "obj-5", 0 ],
									"disabled" : 0,
									"hidden" : 0,
									"source" : [ "obj-1", 0 ]
								}

							}
, 							{
								"patchline" : 								{
									"destination" : [ "obj-6", 1 ],
									"disabled" : 0,
									"hidden" : 0,
									"source" : [ "obj-10", 0 ]
								}

							}
, 							{
								"patchline" : 								{
									"destination" : [ "obj-5", 0 ],
									"disabled" : 0,
									"hidden" : 0,
									"source" : [ "obj-11", 0 ]
								}

							}
, 							{
								"patchline" : 								{
									"destination" : [ "obj-132", 0 ],
									"disabled" : 0,
									"hidden" : 0,
									"midpoints" : [ 330.5, 469.0, 353.875, 469.0, 353.875, 417.5, 374.5, 417.5 ],
									"source" : [ "obj-12", 1 ]
								}

							}
, 							{
								"patchline" : 								{
									"destination" : [ "obj-138", 0 ],
									"disabled" : 0,
									"hidden" : 0,
									"source" : [ "obj-12", 0 ]
								}

							}
, 							{
								"patchline" : 								{
									"destination" : [ "obj-136", 0 ],
									"disabled" : 0,
									"hidden" : 0,
									"source" : [ "obj-132", 0 ]
								}

							}
, 							{
								"patchline" : 								{
									"destination" : [ "obj-5", 0 ],
									"disabled" : 0,
									"hidden" : 0,
									"source" : [ "obj-132", 0 ]
								}

							}
, 							{
								"patchline" : 								{
									"destination" : [ "obj-5", 0 ],
									"disabled" : 0,
									"hidden" : 0,
									"source" : [ "obj-4", 0 ]
								}

							}
, 							{
								"patchline" : 								{
									"destination" : [ "obj-5", 0 ],
									"disabled" : 0,
									"hidden" : 0,
									"source" : [ "obj-41", 0 ]
								}

							}
, 							{
								"patchline" : 								{
									"destination" : [ "obj-41", 0 ],
									"disabled" : 0,
									"hidden" : 0,
									"source" : [ "obj-43", 0 ]
								}

							}
, 							{
								"patchline" : 								{
									"destination" : [ "obj-12", 0 ],
									"disabled" : 0,
									"hidden" : 0,
									"source" : [ "obj-5", 0 ]
								}

							}
, 							{
								"patchline" : 								{
									"destination" : [ "obj-5", 0 ],
									"disabled" : 0,
									"hidden" : 0,
									"source" : [ "obj-6", 0 ]
								}

							}
, 							{
								"patchline" : 								{
									"destination" : [ "obj-5", 0 ],
									"disabled" : 0,
									"hidden" : 0,
									"source" : [ "obj-60", 0 ]
								}

							}
, 							{
								"patchline" : 								{
									"destination" : [ "obj-64", 0 ],
									"disabled" : 0,
									"hidden" : 0,
									"source" : [ "obj-62", 0 ]
								}

							}
, 							{
								"patchline" : 								{
									"destination" : [ "obj-5", 0 ],
									"disabled" : 0,
									"hidden" : 0,
									"source" : [ "obj-64", 0 ]
								}

							}
, 							{
								"patchline" : 								{
									"destination" : [ "obj-83", 0 ],
									"disabled" : 0,
									"hidden" : 0,
									"source" : [ "obj-74", 0 ]
								}

							}
, 							{
								"patchline" : 								{
									"destination" : [ "obj-6", 0 ],
									"disabled" : 0,
									"hidden" : 0,
									"source" : [ "obj-8", 0 ]
								}

							}
, 							{
								"patchline" : 								{
									"destination" : [ "obj-62", 0 ],
									"disabled" : 0,
									"hidden" : 0,
									"source" : [ "obj-83", 0 ]
								}

							}
 ],
						"dependency_cache" : [ 							{
								"name" : "helpdetails.js",
								"bootpath" : "/Applications/Max6/Cycling '74/help-resources",
								"type" : "TEXT",
								"implicit" : 1
							}
 ]
					}
,
					"patching_rect" : [ 10.0, 85.0, 50.0, 20.0 ],
					"saved_object_attributes" : 					{
						"globalpatchername" : "",
						"fontface" : 0,
						"fontsize" : 13.0,
						"default_fontface" : 0,
						"digest" : "",
						"default_fontname" : "Arial",
						"fontname" : "Arial",
						"tags" : "",
						"default_fontsize" : 13.0,
						"description" : ""
					}
,
					"text" : "p basic",
					"varname" : "basic_tab"
				}

			}
, 			{
				"box" : 				{
					"border" : 0,
					"filename" : "helpname.js",
					"id" : "obj-4",
					"jsarguments" : [ "jit.mgraphics" ],
					"maxclass" : "jsui",
					"numinlets" : 1,
					"numoutlets" : 1,
					"outlettype" : [ "" ],
					"parameter_enable" : 0,
					"patching_rect" : [ 10.0, 10.0, 305.0, 55.0 ]
				}

			}
, 			{
				"box" : 				{
					"fontname" : "Arial",
					"fontsize" : 12.0,
					"id" : "obj-5",
					"maxclass" : "newobj",
					"numinlets" : 0,
					"numoutlets" : 0,
					"patcher" : 					{
						"fileversion" : 1,
						"appversion" : 						{
							"major" : 6,
							"minor" : 0,
							"revision" : 2
						}
,
						"rect" : [ 0.0, 26.0, 688.0, 521.0 ],
						"bglocked" : 0,
						"openinpresentation" : 0,
						"default_fontsize" : 12.0,
						"default_fontface" : 0,
						"default_fontname" : "Arial",
						"gridonopen" : 0,
						"gridsize" : [ 15.0, 15.0 ],
						"gridsnaponopen" : 0,
						"statusbarvisible" : 2,
						"toolbarvisible" : 1,
						"boxanimatetime" : 200,
						"imprint" : 0,
						"enablehscroll" : 1,
						"enablevscroll" : 1,
						"devicewidth" : 0.0,
						"description" : "",
						"digest" : "",
						"tags" : "",
						"showontab" : 1,
						"boxes" : [  ],
						"lines" : [  ],
						"dependency_cache" : [  ]
					}
,
					"patching_rect" : [ 205.0, 205.0, 50.0, 20.0 ],
					"saved_object_attributes" : 					{
						"globalpatchername" : "",
						"fontface" : 0,
						"fontsize" : 12.0,
						"default_fontface" : 0,
						"digest" : "",
						"default_fontname" : "Arial",
						"fontname" : "Arial",
						"tags" : "",
						"default_fontsize" : 12.0,
						"description" : ""
					}
,
					"text" : "p ?",
					"varname" : "q_tab"
				}

			}
 ],
		"lines" : [ 			{
				"patchline" : 				{
					"destination" : [ "obj-1", 0 ],
					"disabled" : 0,
					"hidden" : 0,
					"source" : [ "obj-6", 0 ]
				}

			}
 ],
		"dependency_cache" : [ 			{
				"name" : "helpname.js",
				"bootpath" : "/Applications/Max6/Cycling '74/help-resources",
				"patcherrelativepath" : "../../../../../../Applications/Max6/Cycling '74/help-resources",
				"type" : "TEXT",
				"implicit" : 1
			}
, 			{
				"name" : "helpdetails.js",
				"bootpath" : "/Applications/Max6/Cycling '74/help-resources",
				"patcherrelativepath" : "../../../../../../Applications/Max6/Cycling '74/help-resources",
				"type" : "TEXT",
				"implicit" : 1
			}
, 			{
				"name" : "helpstarter.js",
				"bootpath" : "/Applications/Max6/Cycling '74/help-resources",
				"patcherrelativepath" : "../../../../../../Applications/Max6/Cycling '74/help-resources",
				"type" : "TEXT",
				"implicit" : 1
			}
 ]
	}

}
