{
	"patcher" : 	{
		"fileversion" : 1,
		"appversion" : 		{
			"major" : 6,
			"minor" : 0,
			"revision" : 2
		}
,
		"rect" : [ 100.0, 100.0, 700.0, 454.0 ],
		"bglocked" : 0,
		"openinpresentation" : 0,
		"default_fontsize" : 12.0,
		"default_fontface" : 0,
		"default_fontname" : "Arial",
		"gridonopen" : 0,
		"gridsize" : [ 15.0, 15.0 ],
		"gridsnaponopen" : 0,
		"statusbarvisible" : 2,
		"toolbarvisible" : 1,
		"boxanimatetime" : 200,
		"imprint" : 0,
		"enablehscroll" : 1,
		"enablevscroll" : 1,
		"devicewidth" : 0.0,
		"description" : "",
		"digest" : "",
		"tags" : "",
		"showrootpatcherontab" : 0,
		"showontab" : 0,
		"boxes" : [ 			{
				"box" : 				{
					"fontname" : "Arial",
					"fontsize" : 12.0,
					"id" : "obj-3",
					"maxclass" : "newobj",
					"numinlets" : 0,
					"numoutlets" : 0,
					"patcher" : 					{
						"fileversion" : 1,
						"appversion" : 						{
							"major" : 6,
							"minor" : 0,
							"revision" : 2
						}
,
						"rect" : [ 0.0, 26.0, 700.0, 428.0 ],
						"bglocked" : 0,
						"openinpresentation" : 0,
						"default_fontsize" : 13.0,
						"default_fontface" : 0,
						"default_fontname" : "Arial",
						"gridonopen" : 0,
						"gridsize" : [ 5.0, 5.0 ],
						"gridsnaponopen" : 0,
						"statusbarvisible" : 2,
						"toolbarvisible" : 1,
						"boxanimatetime" : 200,
						"imprint" : 0,
						"enablehscroll" : 1,
						"enablevscroll" : 1,
						"devicewidth" : 0.0,
						"description" : "",
						"digest" : "",
						"tags" : "",
						"showontab" : 1,
						"boxes" : [ 							{
								"box" : 								{
									"bubble" : 1,
									"bubbleside" : 3,
									"fontname" : "Arial",
									"fontsize" : 13.0,
									"id" : "obj-5",
									"maxclass" : "comment",
									"numinlets" : 1,
									"numoutlets" : 0,
									"patching_rect" : [ 320.100006, 353.0, 75.0, 25.0 ],
									"text" : "the filter"
								}

							}
, 							{
								"box" : 								{
									"bubble" : 1,
									"bubblepoint" : 1.0,
									"fontname" : "Arial",
									"fontsize" : 13.0,
									"id" : "obj-2",
									"linecount" : 4,
									"maxclass" : "comment",
									"numinlets" : 1,
									"numoutlets" : 0,
									"patching_rect" : [ 87.0, 65.0, 319.0, 70.0 ],
									"text" : "if you make the filter explode by making the b coefficients too high, you can recover (after lowering them) with the clear message, or by turning the audio on and off."
								}

							}
, 							{
								"box" : 								{
									"fontname" : "Arial",
									"fontsize" : 13.0,
									"frgb" : [ 0.501961, 0.501961, 0.501961, 1.0 ],
									"id" : "obj-18",
									"maxclass" : "comment",
									"numinlets" : 1,
									"numoutlets" : 0,
									"patching_rect" : [ 462.5, 208.0, 25.0, 21.0 ],
									"text" : "b2",
									"textcolor" : [ 0.501961, 0.501961, 0.501961, 1.0 ]
								}

							}
, 							{
								"box" : 								{
									"data" : [ 10812, "", "IBkSG0fBZn....PCIgDQRA...3M....eHX....fAy5fT....DLmPIQEBHf.B7g.YHB..f.PRDEDU3wY6ctGWTUm+++0bFlgKCCC2FjKJfDxJf4kV0vMTbUWSWuzl1McqLrLS9hWRSqUSQWcc0cSErvxTCYsjDwKYIYpfJhV.YbQAWEi6JCWEX.lAXNyme+A+lyJALL2mC377widTMmOm2edOLm2mymy6OuuvgPHDXAKXASJTlaEvBV3wQrX3YAKXFvhgmErfY.KFdVvBlArX3omzQGcfVasUnToRyspvJnwFaDJUpzxeO5CrX3oGzTSMgnhJJ7rO6yhabiaXtUGyJJUpDG6XGCqbkqDadyaFVbVt5whgmdPas0F17l2LhO93w28cem4VcLqnToR7G+i+QbnCcHTd4kC4xkatUIVMVYtU.1FczQGLW3DTPA0siqToRHWtbPHDHVrXnToR7S+zOgW+0ecTc0UiZqsV3pqtB2byMyf1a3ot5pCUWc0PnPgXvCdvc63czQGns1ZCVYkUvM2bCUVYkXBSXBfOe93t28tfKWt3IdhmvLn4rar7DueCM0TSXMqYMnrxJqGONgPv+4+7ePTQEE..JszRgO93CF5PGJpu95QlYlI9jO4SLkprQku5q9JboKcITas01iGurxJCu+6+9H4jSFJUpDolZpXwKdwn81aGkUVYXiabilXMt+Arhm3kTRIglatYSxbYu81iW3EdA0Nlm4YdFL8oO8d7Xb4xEuy67N..n3hKFSdxSFKe4KGW3BW.adyaFd3gG3S+zO0fq2lK3ymOdtm64vfFzf5wi+DOwSfXiMVnPgB7tu66BJJJjUVYgku7kioMsogRKsT..bu6cOjd5oaxz6PCMT3u+9axlOsEVgg2N1wNPjQFoIYt1111Fl+7mO3vgC5niNPrwFKDIRDl27lGhLxHQzQGMnooAPmKi5jm7jnlZpAO6y9rH1XiEqcsqEd4kW..vc2cG4kWdPgBEvVasE..JTn.b3vwj7cwPgJOPlRJofzRKM7ge3GhhJpHjSN4..f1auc..bm6bGjTRIgYMqYgadyaBEJTfvCOb.z4JAT4TEJJJ3fCN.fN+6A.P5omNRO8zQngFpQ+6S5omNjJUJV9xWtQetzUXEFd1au83Mdi2vjLWwDSLHmbxAiZTiB73wCgGd3HzPCE+3O9i3C+vOrKikGOdvUWcEqbkqDVas03hW7hHhHhf431ZqsLFbCDHjPBAaXCa.QDQDvEWbAkTRIvImbh4394me3xW9xnhJp.AFXf3F23FLFd73wqKismHzPC0j8670t10fToRgPgBMIym1xicuimRkJwctycfDIR.gPfPgBwDlvDvBW3BwvF1v513SO8zgSN4DVzhVDDJTHFxPFhYPqMMXmc1gIMoIA4xkiryNaL6YO6tb7FarQjRJofksrkAwhE2qKGmMPCMz.t8suMySqYa7XmgGgPPSM0Dpt5pQqs1JprxJQJojBJpnhvCe3C6xXUnPAN0oNERM0Twst0svnG8nGPtwvTTTfhhBb4xECaXCCIlXhnlZpAAGbvcYbYjQFXUqZUH3fCFm3Dm.Ce3C2Low8Ms2d6n1ZqEUWc0LK2kMwicFd..zzzns1ZCqe8qGe7G+w3JW4JXkqbkc6k+KrvBg2d6MFzfFDRO8zwMtwMPSM0jYRqMdnJRSTcSkrxJK7JuxqzkwPHDbjibDrnEsHzZqshqd0qh7yOeyg5pQPHDls5fMZ3wJdGOyAb3vAuy67Nve+8G73wCEWbwvUWcE0UWcfKWt..ve+8GIjPB..30dsWCgGd3Pf.ApUt73wqeWTaPHDvgCGnToRTXgEhCe3CCJp+28j4ymO3vgCNvAN.ryN6..P1YmMb2c26SYyiGOild2elGKehmJbyM2XLxb0UWY97zSOcjbxICd73AABD.JJJ3jSNAgBE1kKH+sje94iie7iiVasUittanYW6ZWXYKaYXUqZULFW.ctjsjRJIjc1YCgBEBtb4Btb4BO8zS092B4xkiyctygKdwKZJT+9cLf6Ids1ZqvFarQsWTnNbvAGPLwDiNExShEKFgFZn34dtmSmlayEb3vASe5SGu0a8VPjHQc4Xu5q9pn1ZqE1au8ZkLonnfe94G9m+y+ogTUgRkJAMMMHDB3ymuAU1lRFvX3oPgBDczQCoRkxDUI5B73wC93iO5z45lat0uLTwnnnvnF0n5wi4ryNCmc1YsVl74yGADP.5qp0MJrvBwy+7OOtvEt.y9o1ejALK0jhhBKdwKtKKSxBC7XXCaXXEqXErRGlnMLfwvC.FEmZPSSiJqrRCtb6OiRkJwCdvCL2pQ+Z5Wa3kat4hidzihLxHCl8hxPiLYxfe94GF+3GORHgDPas0lAeN5uvcu6cw+2+2+Gb2c20qkyqMHSlLbhSbBjXhIZRlOSErVCOUuD8a+1uMnnn.Od7.EEUW9A2ZqsF1ZqsLtrVkGJMz3niNhrxJKrjkrDLzgNT7xu7KirxJKixbw1nwFaDexm7IHnfBBSbhSD6ae6C0TSMniN5vfHekJUhZqsVLjgLDPQQAgBEBarwFlDKlCGNvFaroKglGWtbMJ2j0TBq14JO7gODt6t6PhDIH2byE6XG6.aXCaf43Ce3CmI5ITpTIxO+7wd26dwa9luYW1dfeqL2yd1Cr2d6gs1ZKrxJqTaPMSSSyD1QszRKnkVZAIlXhHojRByctyEqYMqoaw3YeAgPvnG8nQLwDiVcd5BEWbw3u7W9K8YbT9aYzidzXZSaZXgKbgPtb4cyP6ZW6ZXxSdxZr7jHQB9fO3C5wic8qecDczQiIO4Iist0sh.CLPLlwLF..XiM1fYMqYwLV4xkizRKMPHD71u8aqUemXUPXADVXg0sOilllzQGcPnooI2+92mrfEr.hb4xIzzz8nLnooI0TSMj5qudRyM2buNWO4S9jj8su8QxHiLH0Vas8p7TgToRIt6t6D.PDHP.wCO7f7RuzKQxLyL0puiOJJUpjLwINQc970F9lu4aHezG8Q5742PCMP93O9iIAFXfD2byMB.H.frnEsHsRNwEWbj3hKtt84zzzj1aucBMMM4Dm3DjXiMVBMMMQgBE8nbZs0VI0Vasj5pqN0NWyYNygb5SeZx8t28HxjISqzUSAr5m3QQQgZpoFDQDQfDRHA0FUHTTT85S4zWZngFv3F23v69tuKl27lGr1Zq0K4wgCGvkKWnToRi9RlxO+7wnG8n03wqJC6KqrxXhcyHiLRDYjQh6d26hXhIFb7iebCVDoPHDvkKWb1ydVTXgEh2+8ee0N9AJYDBqdgxMzPCXAKXA3fG7f..Xm6bmlb2Haqs1hhJpHjYlYhErfEn2FcpXnCcnnnhJxfHK0Q94me2B149BNb3f0st0gqe8q2kOOf.B.wFarPhDIXKaYKFD8iCGNH0TSEokVZXMqYM3t28t3vG9vCHCF8GEVqgW6s2Nl5TmJt7kuLbyM2f.ABf0VasIO1+3xkK7vCOL3xMnfBBETPAFb49aorxJSqRkIBg.d73A974iYLiYzikpOJJJ3omdZPzurxJKL8oOcrqcsKvmOeL7gObL9wOdChrYyvZWpIWtbw4N24.EEEHDBTpTIbzQGMo5fpK3polZvQO5QQGczADKVLSxepODbvAibxIGL24NW8VV8FJUpDb4xUqxHdNb3f5pqNjUVYg3iOdHUpTrt0sNiVBkFXfAhJqrRFcjPHvEWbwnLWrIXsOwiGOdXPCZPPrXwvM2bCt6t65ULXpKPQQgFZnArvEtPrzktzt3gS8kfCNXi9S7Jt3hwPG5P05yKu7xCDBAgGd3fCGNF08PyAGb.CZPChIb6FzfFDrxJq52ucA8ECr+1omnToRryctSDUTQAqs1ZjVZogoLkoXPj8PFxPXJDPFKxO+76wRTn5fPH3zm9z3q+5uFt3hKvN6rqGKqeVP+vhgmZns1ZCW5RWBicriEolZpnhJpfYYPETPAXm6bmnt5pSmj8i5YSiE5hiUjKWNxHiLvXFyXfLYxvwO9wQHgDBHDB95u9qwIO4IMRZ6iWXwvSMnZ4Nqd0qFolZpn7xKG4latfPHn4laFiXDi.wFar5r7G5PGJJt3hMTpa2nfBJPqM7ppppfiN5HxKu7vV1xVPBIj.DJTHjHQBBN3fwEtvELRZ6iWvZctBa.qs1ZbgKbAzQGc.QhDgUspUAwhEC.fwO9wiqd0qhoN0opyxOnfBB4me9FsJsbokVpVWbl70WeQxImLJt3hw1291Yt4iGd3Ab2c2GPWrmLkX4Id8AhDIBt5pqLN6Any2C592+9nlZpASXBSPmkcvAGrQqtknKdzD.LwEa.AD.iSNT4U4u8a+V7W+q+Uih993FVL7zAt+8uO99u+6wvG9vgToR0Y4XL2KuhKtX3qu9ZPjEGNbvYNyYfKt3R+xxZAaDVwRMat4lwgO7gMIykLYxzqymPH35W+5nolZB+xu7K5UVV6s2daz7rot3XkdipqtZTPAE.d73oW0RSSUIb2TVp30UXEFdevG7A3F23FnzRKExjIioDpqNTseZZac2n2JwAZJb4xEu7K+x5kLTgJOaR9+WkuLjTPAEn2eWUg6t6NV+5WudIiPCMTHUpTbsqcMzPCMf1aucMJwkat4l0558B.X8cnHVgg2K7Bu.l+7mOt28tGJqrxznNrpJ2ZOu4MOSgJZzvWe8EEUTQF7KTxO+7wBVvBLnxTeve+8GKe4KGRkJE2912F0Vas8YN8QSSiUrhUf8t28pS4ZoM1XitptFcXEFd.cd2e+82e3hKtvzNeUGqbkqD..aZSaRmmO1.pbvhg1vqzRKEd6s2FTYZHPnPgXzidzn5pqtOyl+KdwKhpppJTSM0foMsooSymgJn1MzvZL7.5zXvYmcFBDHPsKC4V25VnkVZA.clXqiXDiPmmOysAXvAGLxM2bMnwropTswb+cq2fOe9vc2cuOyzj3iOdnPgBDe7wiEsnEoyymUVwptLG.rLCOUzW2kJ1XikoQIFarwh3hKNSgZYTHnfBBG8nG0fJyhJpHClGMMVXkUVoVCh5pqNlfKn3hKFszRKCnBd59camfBEJvYNyYfSN4DbxImvYNyY5WWp2LFd1zP5QSyEG5PGB0UWcfhhB0UWc3PG5PlaUxfR+NCuyd1yhlZpIL24NWL24NWzTSMgyd1yZtUKclG0ylFJJnfBz5filswm9oeJBIjPvXG6XQHgDx.ptrKP+PCuicrige3G9ALyYNSLyYNS7C+vOficriYtUK8BUd1zPQ+8m3cyadSDbvAiTRIELhQLBjRJoffCNXbyadSyspYvnekgmLYxvxW9xwTlxTfLYxfLYxvTlxTvxW9x06MF2bhgN27XqdzTSogFZ.m5TmB73wC+5u9qfGOd3Tm5TngFZvbqZFL5WY3Yqs11iwF4DlvD5WW.bTErzFBX6dzTSXhSbhcqDeviGOLwINQyjFY3oekg2.ULjAKc+AOZZAKFdrBLjd1TWxAOKX5whgGK.ComM0kx8fEL8Xwvikfgxyl828n4iKXwvikfgJ275u6QyGWvhgmdRQEUDtzktjdWzhLDNXwb6QSYxjgjRJIct.P83DVL7zSjISFtxUthdKGCwd4YHy5bcAJJJ7S+zOYIK00.XkAIs4jN5nCTd4kC4xkqQNovCO7fIuupt5pQs0VKb0UW05dgtgvylFCGqTWc0gpqtZHTnv9r9ZZs0VigMrgwzaC+0e8WAWtbY8Ikp4.KOw62PSM0DVyZVCJqrx5wiSSSiScpSg8su8Aft19mqu95QlYlI9jO4Sz54UUJJoOd1zX3Xku5q9JboKcIlrA42R4kWNhN5nwktzk.v+6uGzzznrxJCabiazfpOCTfU7DuJpnBsNCCTcgPIkThVcdVYkU84ctelm4Y50ZKBGNbvS+zOcWRhSU+2Ce3CGd3gG5b.8ppNa5me9oSmeAETfAOqy4ymOdtm64XpvZ+Vb1Ymwbm6bYJOCs2d6fCGNfOe9XZSaZLOEu4latWMdUGxkKWq+MF.vUWcUmJYDlJXEFdyXFy.O0S8TZ04nJ1LyKu7zpyKqrxB2912F.ctrxXiMVHRjHLu4MODYjQhniNZlZ9RGczAN4IOIpolZvy9rOKhM1XwZW6ZgWd4Ei7ppppfqt5Jpt5pYRtSc04FpBcLc0vSW8noJGCkRJofzRKM7ge3GhhJpHjSN4.f+W8s4N24NHojRByZVyB27l2DJTn.gGd3L5a80WOrwFaPUUUEidn5FpIkTR3.G3.Z8xNc0UW05pLv8t28vhVzhvRW5R0pyyTBqvvyUWcE+m+y+wjLWO0S8TnjRJA95qufGOdH7vCGgFZn3G+werasTYd73AWc0UrxUtRXs0ViKdwKhHhHhtLlfBJHC16UEbvAi7xKOLm4LGs9bUUvjzGOZFRHgfMrgMfHhHB3hKtfRJojtzBm8yO+vku7kQEUTABLv.wMtwM5RmSxYmcVssG4krjkf23MdCcV+zTN7gOLxN6rQ6s2tVWLrLU7X263QSSiryNazPCM.Bg.gBEhILgIfEtvEhgMrg0swmd5oCmbxIrnEsHHTnPiZkTVe1KOCgGMsyN6vjlzjfb4xQ1YmMl8rmcWNdiM1HRIkTvxV1xfXwh0qR8mwlpppJbm6bGVaRR+XmgGgPPc0UGpnhJPGczAprxJQJojBJpnhvCe3C6xXUnPAN0oNERM0Twst0svnG8nMpMYDe7wGc1yl5iiUnnn.EEESqWNwDSD0TSMcSdYjQFXUqZUH3fCFm3Dm.Ce3CWmlOSAxkKGUVYkn95q2fljwFJdryvCny2cqkVZAqcsqEe7G+w3JW4JXkqbkcqPnVXgEBu81aLnAMHjd5oiabiaflZpIildoOd1TeBNZUc8UU2TIqrxBuxq7JcYLDBAG4HGAKZQKBs1Zq3pW8pFsxOug.kJUBYxjAoRk1mUyLyArh2wyb.GNbv67NuC72e+AOd7PwEWLb0UWQc0UGSMbze+8GIjPB..30dsWCgGd3Pf.ApUt73wSutCqu95qN4Yy7yOectP6p58CUpTIJrvBwgO7g6RigjOe9fCGN3.G3.vN6rC..Ymc1vc2cuOksot0Y2egGKehmJbyM2XLxb0UWY97zSOcjbxICd73AABD.JJJ3jSNAgBEp1NUZ94mON9wOtdE4F5ZniUZokBe7wGcdd20t1EV1xVFV0pVEiwEPmdzLojRBYmc1PnPgfKWtfKWtvSO8Ts+sPtb43bm6b3hW7h5rNMPlAbOwq0VaUuZYyN3fCHlXhAxkKWqOWwhEiPCMT7bO2yoSyM.XpsHZimM0WOZxgCGL8oOc7Vu0aAQhD0ki8pu5qhZqsVsdOwnnnfe94G9m+y+oNoS8FphJFBgvZ8Xolv.FCOEJTfniNZHUpTDUTQoyxgGOd57SNT0Gu0GBJnfvW+0esVcN5qGMonn509rfyN6Lb1Ym0ZYxmOe8pgtzaTXgEhm+4edbgKbgtrep82X.yRMonnvhW7h6xxj5Oht3YyGmxAugMrggUrhUvZ2l.MkALFd.fU51XsEcwylCDpilOtQ+ZCubyMWbzidTjQFYvrWTFZZt4lgu95K17l2LprxJM3xumPkmM0TLUOwSoRk37m+7XZSaZXMqYMF84CnyPC7Dm3DHwDSzjLelJ5W+Nd73wC1ZqsLtrVWZkSZBxjICaaaaCe1m8YvKu7BKdwKFyblyTq5DMt5pqZ73UkadZ5VJnudzru3t28tHlXhAm4LmARkJEM1Xi8YflanfCGNvFaroKAt.WtbMJ2j0TBq0vSoRkfPHXYKaY3fG7ffKWtfllFabiaDaYKaA.cMNIUpTIxO+7wd26dwa9luYW1dfGkFarQDe7wiu669NHTnPXs0VqVuA1QGc.ZZZPSSipppJTUUUgbyMWrxUtR3me9gwLlwzm6UUyM2L72e+wG8QejF8cOnfBB25V2pagrUOg15QSBgf0rl0f5qu99brUTQE3F23Fn4latauS0u7K+hVE2k26d2Cu0a8Vc6yUpTIpu95wXFyXv8u+8g.ABPGczAt10tF98+9eOrwFavrl0rXFub4xQZokFHDhZiKT1NrVCOfNaAWt6t6PhDIH2byE6XG6.aXCanWG+vF1vvst0sTqals2d6wrm8rwHFwHfO93CDIRjZu6YKszBRIkTX9+cwEWfCN3.d8W+0wRW5RgGd3gF8cYpScp3AO3AvSO8rOGavAGrFWV50VOZdxSdRvgCGr4Mu49brJUpDomd5X+6e+nvBKDM0TScIEnzDYnhjRJod8XW+5WGQGczXxSdxXqacqHv.CDiYLioGGKGNbPzQGc+5B1K.K2vyQGcDadyaFRjHAwEWbH4jStWasSTTT85S4dT3xkKbwEWfmd5I71augSN4jZM7Zt4lQKszB7vCOvDm3Dw68duGF23FmV+cYCaXCXaaaaLIPq5Pa7ro1DpXzzzX26d23rm8rvQGcrGGiRkJgb4xQYkUF3xkKd8W+0wq+5uNZrwFwQNxQv9129vCdvCfc1YmVYvqteal4LmI3xkKN8oOMBHf.vRVxR5UmKYqs11utpgqBV8BkonnPM0TChHhHvgNzgz6vwRWfOe93K9hu.EWbw3XG6X5jQG.vTlxTPwEWrFkTmZimM0lx8vQNxQvblyb5UitGc9W25VGt90uNymIRjHDYjQhBJn.jYlYh27MeSMZN6KTUflN6YOKJrvBQDQDAS.aOPFVsgWCMz.VvBV.N3AOH..14N2oIe+a3ymOdwW7EMHsz2MsoMw79o8EZpmM0TOZ1d6si8u+8iUrhUn1wQHDviGOvmOeLiYLitD7zpHf.Bvf0GC3vgCRM0TQZokFVyZVCt6cuKN7gOrQMKPXCvZM7Zu81wTm5Twku7kgat4FDHP.r1ZqMoAcqpK5ppppvd1ydv+5e8uzqtO6DlvDvCe3Cwctyc5ywpo4lml5Qy8u+8iW60ds9L.C3vgCpu95QVYkEhO93QTQEESau1XPVYkEl9zmN10t1E3ymOF9vGNF+3GuQa9XKvZM73xkKN24NGppppfDIRvCdvC5V1earghhBMzPCXgKbgXoKcofllloLHnqr4MuYMxoDZRvRqodzrkVZAG8nGEKYIKQizw7xKOPHDDd3gCNb3XT2Cs.CLPTYkUBIRj.IRjfJqrRiRnlw1f05bEd730qEXGSEJUpD6bm6DQEUTvZqsFokVZXu6cu5kLUkLs4lat8Z7QBzogWecAupRXQeQzQGMhHhHznUKPHDb5SeZ70e8WCWbwEXmc1YT2yNGbvA3fCNXzjOaEV6S7XCzVasgKcoKgwN1whTSMUTQEU.WbwE.zo2N00kcpIO0yGe7oOcDil3XkG9vGhu+6+d7W+q+UMR2jKWNxHiLvXFyXfLYxvwO9wQHgDB..9u+2+a+9tuKaAKFdpAUayvpW8pQpolJJu7xQt4lK.5zs1ey27M5jbCLv.gHQhPFYjQuNFMwylZhiU14N2Idu268z3H8npppBN5niHu7xCaYKaAIjPBPnPgLGWhDIZjbrf5g0tTS1.Vas03BW3BniN5.hDIBqZUqBhEKF.cV3ae5m9o0YYuoMsIDYjQhjSN4dcL95qunjRJACcnCsGOdAETfZy5bIRjfLxHCricrCMVu70WeQxImLJt3hw12916hAad4kGlzjljFKKKz6X4Id8AhDIBt5pqLuyIEEEy6nM1wNVcVt94mevGe7AW9xWtWGSe0hlKojRTqGM25V2Z2JYg8ETTTfGOdHf.B.VYkUfhhBDBgo5r83fiOLEXwvSGfPH3BW3BXjibj5kb9vO7Cw111150iqNOa1Wdzr3hKFEUTQXpScp5kNBz4xdqqt5.GNbFPD0HrAXEK0TgBE5TY5VWPUUhVe3W+0eEhEKFczQG5kb7xKuvHG4Hw2+8eOl4LmY2NdPAETu5Yy95ocZ51VnIPHD7y+7Oim3IdBzVasoyFe0Vasljem0kREuoFVggWHgDBhHhH5wnfu2PUjMnsoGhJuRpODP.AXvVx0e6u82vK7Bu.lwLlQ2d5kp2wqmPcNVI+7yGM2by506f9nvkKW7m+y+Y8RF96u+36+9uGImbxn81aWiiLEEJTzqwmq5fMWyOAXIFdezG8QPtb4HmbxAUTQEPtb484OL+3O9i.nynAQaQW9gzXgpBjzoN0ov7l275xwdTOa9aMJUWvQuoMsI72+6+cilNqKDZnghPCMTTZokhBJn.zPCMnQqXHlXhAQFYj5zbxli2SVyUf1XiMXricrvKu7BM1Xi8Y.B+u9W+K..cNZVrxJqXMkJh0t10hYO6Yi+xe4uzsmfqZ+79sd1L+7yGu3K9hcSVYlYlPf.Ar1ZvhpTwpppppOiBnacqagryNaviGOLhQLBcZ9XqFerFCOfNMF7xKufyN6rZeWLIRjfZpoF.zoK+0jBqZOAaIKlczQGwLm4LwQO5Qwq9puZWNlJGr7aM75snVIpnhRiR8HyIN5nivN6rqOKghQEUTfPH33G+3cIYX0VXi4tGqxvCnSig9pZMu6cualWf9nG8nFLmHXNYkqbk3O8m9S3UdkWoKKEVkg2rm8rQiM1H.5LLq5IOZlRJo.+7yudce+XSvmOe0lvxs0Va3m9oeB..+zO8SvZqs1fjgHrEXG2xWKI93iGBDH.BDH.wGe7la0wff81aOdwW7EYBCs5qudlPBS0VJrjkrDTd4k2EOZVPAEvzrU1111lVuucrUNwINApu95Ae97Q80WON4IOo4VkLnzuyvKqrxBkTRILdVrjRJAYkUVla0xfPDQDA9hu3KPas0FhO93w5V25X5ieEWbwH4jSF6XG6.EVXgHjPBARjHAyadyCVYkU3zm9z3oe5mViKEErc18t2MDIRD70WegHQhvt10tL2pjAEND1hGFzPVxRVB7zSOQfAFH..t8suMdvCd.NvANfYVyLL7oe5mxrLxUrhUf+3e7OhpqtZHWtbHUpTb+6eeL4IOYDP.Afu7K+RPSSilZpI7m+y+YjXhI1kFIY+UprxJwDm3DQZokFV+5WO1912NlzjlTlCYVm..PBmmDQAQEt5Uu5.lar.R+HjKWN4fG7fDBgPhKt3HwEWbDBgPN3AOHQtb4lQMS+Ptb4j8rm8P9xu7KIUWc0jPBIDxS8TOEwM2biXs0VSDHP.gOe9jW5kdIhKt3BQf.AD6s2dhmd5IA.j27MeSx1291I+5u9qj8rm8Pt90ut49qjdwoO8oI2+92mPHDRXgEFgPHj6e+6SN8oOsYTqLrzuxvilll4+9QM79sGq+HxjIiLkoLEBWtbIN5niDmc1YxfG7fIiabii..BWtbIwEWbDe7wGB.Ht3hKjMsoMQnnnH.fHVrXBEEE4PG5Pl6uJ5MO5ukpL79sed+c5W8Ndpy8+rksFPWwFarAm+7mGyadyCJTn.0We8PgBEX+6e+PrXwvYmcFie7imoUPO1wNVzVaswDnADBAe228cXwKdwlyuFFD5seK6u+a7ix.muIC.fKWtHwDSDKYIKAN4jSfllF1YmcXFyXFnkVZA+te2uCgEVXvVasEG7fGD+2+6+E..d5om37m+78X7dZA1Irt8wyBc5QuAO3Ai2+8eeTZokhXhIFTc0UCtb4hIMoIAZZZL3AOXTTQEAu81abkqbE8pMcYASOVL7Xor5UuZL3AOXHQhDTPAEfQMpQg24cdGXkUVgQMpQgZpoFLxQNRDSLwXPB7aKXZwhgGKlgNzghUrhUfQMpQg+ve3OfQMpQgpqtZ7y+7OiYO6YivBKrGKKTPCDPmL7pqt5P0UWMDJTXOVApjJUJJu7xg81aO71au0ak7wQNyYNC1wN1A1+92e2R31+ze5Og0t10hst0shm8YeVjbxICarwFyjl93AF5q40Imq7Ue0WgKcoK0qIbXqs1Jt28tGV0pVktH9G64N24NXiabi3hW7h8ZVtakUVgsrksf4O+4iW60dMSrF93GF5q40ICO974im+4e9d8hBwhEiYMqYw5SFQMAZZZSVCoTEqe8qG6cu6E1YmcLUy56cu6gwLlwfbxIGlOSoRkHhHh.UVYk3Tm5TlTcr+FRkJEm7jmDs1Zq5z4anuluOM7xM2bwa+1uMpolZvwN1wvgNzg.GNb.MMMnnnPAET.9G+i+AxImbvQNxQPbwEGnnnz51ILaEYxjA+7yOL9wOdjPBIvzlpLV7vG9PTas0hvBKrt74RkJE4latcqu1opka8IexmzunjGXtPnPgvEWbACdvCFyYNyAW8pWsGGmRkJwEtvEvF23FQas0Ft8suMRHgDXtlGnyUjr8sucjWd40sq40zLquOM7dxm7IwTm5TQ.AD.r0Va6VyR7Idhm.W9xWF6e+6GO7gOTsUMq9q3niNhrxJKrjkrDLzgNT7xu7KazBL6LyLyd7tpppyI8T8N4odpmBUTQE35W+55cIlefLgEVXHojRBW7hWDyYNyA93iOXsqcscqknERHgfe3G9ATe80CWbwktU9M7yO+vku7kwm8YelNeMuZcthJq2PBID3gGdvzGydTZrwFQJojB10t1ExO+7wzm9z6QYkSN4XPemulatY..b3CeXClL6Idz9kPKszBZokVPhIlHRJojvbm6bwZVyZLnohS0UWMV5RWJ.5rirlPBI.ABDvrY4e9m+4HmbxARkJEyctyECe3CGN6ryPtb4Xsqcs3e7O9GvFargUl7m5BRjHASdxS1fIO6ryNHTnP7vG9PzXiMhcu6cicsqcgst0sh0u90yLlIMoIA4xki6d26hYO6Y2kVVViM1Ht3EuH18t2Mt4MuYudMuZouhoLZZZxt28tId4kWDIRjPps1ZIe1m8YjxKubBgPHm4Lmg7tu66RTnPAY9ye9je9m+Yly6C9fOvXFtalDjJUJwc2cm..h.ABHd3gGjW5kdIRlYloQY9N24NGIxHijPHDRN4jCgCGN85+jZpoRHDBot5piDP.AP9zO8SI+xu7KDYxjYTzsABjRJoPrwFaHhDIh3s2dSdu268HkTRILGmlllPSSS9rO6yH6XG6fbjibDl++xKubBMMM469tuir5UuZhRkJ6107u+6+9Zjdn1kZVPAEfPBIDLkoLE71u8a2slQHgPvW9keIVzhVDZs0VwUu5U6yNbS+QZngFv3F23vANvAz6FTYew3G+3YJS7ibjiDs2d6PgBELKs87m+7PgBEn81amopN+K+xuvTrcUnPQeVREdbkqbkqfW3EdALsoMM7se62hRKsT7u+2+6dsLIlUVYgW4Udkt7YDBAG4HGAuwa7F5007pcol95qu3a+1uEhEKF96u+fPHL8WMd73ANb3fO+y+bXu81C.fryNal5eBGNbFPDTq1ZqsnnhJxjkGXN4jSPrXw3JW4JHrvBi4ugpJGDp92p9bBgfnhJJDbvACarwFvkKWPSS2iUlrGmQpTont5pCUTQE8ZOBjlllwAIEVXg3vG9vc4ZXUWyefCb.89Zd0Z3Ymc1wnjOZcPos1ZCIlXh3O7G9C32+6+8Letmd5I.5rwWbsqcMb6aeaMRIXyvkKWSdxWt8sucLu4MOjUVYwrw3OZVH7nru8sOzQGcf.BH.3niNB974yZqrVlSDJTX2Jeh8D6ZW6B28t2EQEUTcw.s81aGIkTRHjPBQsWyq5cw6KzoLPu95qG0Vasvd6smYheTTkozBEJDd4kWZq3YMn5h8ZpoFbzidTzQGc.whEivCObi9b+Mey2fst0shu3K9BLxQNRPSSiZqsV3ryNCd73AEJTf+9e+uiSbhSf4O+4yTjiFxPFBDKVbW5vOVPyPoRk3l27lvau8FhDIpKGSpTonlZpA1YmcFjq462U5GL0Te80iW7EeQ7se62hXhIF3ryNy30QiM+3O9i3sdq2BicriEScpSkIVMyLyLwwN1wfyN6LlxTlB7zSOgWd4EF7fGLDKVLbxImFPUQtFHhECO0fRkJwe6u82vrl0rvy7LOCl8rmM16d2KF1vFlISGnoow1291w0u90QyM2L3xkKDIRD9c+teGF7fGLbxImvfFzffXwhgqt5JDIRDr2d6GP790CjwhgmZPlLYHrvBCW9xWFW6ZWCqd0qFW4JWAN6ryngFZ.+vO7CXBSXBlj.A+l27lnnhJBM2byfPHvFarABDH.hDIBN3fCL+a6ryNMpkKaAyKVRKH0vi1QXcxImX5HrgEVXXO6YOXcqacHt3hSmqs+ZCO4S9jXHCYHnt5piY6BrxJqfs1ZKr0VagM1XCr0VaYU8EBKz6X4WI0Pu0QXyM2bgu95Knnn5V3FYLwQGcDN3fCL0ZEBg.tb4BqrxJvkKWKKureDVL75CdTuaMnAMH.z4FqNtwMNTUUUoy8sAcEJJJKMGxA.X4Vj5.hDIBt6t63y+7OuaQ1fErflfEmqnCHUpTb9yed3u+9im7IeRKKwyBZMVL7rfELCX4V0VvBlArX3YAKXFvhgmErfY.KFdVvBlA9+cA4OfV5rhAz.....jTQNQjqBAlf" ],
									"embed" : 1,
									"id" : "obj-46",
									"maxclass" : "fpic",
									"numinlets" : 1,
									"numoutlets" : 0,
									"patching_rect" : [ 375.600006, 297.0, 222.0, 124.0 ]
								}

							}
, 							{
								"box" : 								{
									"fontname" : "Arial",
									"fontsize" : 13.0,
									"frgb" : [ 0.501961, 0.501961, 0.501961, 1.0 ],
									"id" : "obj-17",
									"maxclass" : "comment",
									"numinlets" : 1,
									"numoutlets" : 0,
									"patching_rect" : [ 388.100006, 208.0, 25.0, 21.0 ],
									"text" : "b1",
									"textcolor" : [ 0.501961, 0.501961, 0.501961, 1.0 ]
								}

							}
, 							{
								"box" : 								{
									"fontname" : "Arial",
									"fontsize" : 13.0,
									"frgb" : [ 0.501961, 0.501961, 0.501961, 1.0 ],
									"id" : "obj-16",
									"maxclass" : "comment",
									"numinlets" : 1,
									"numoutlets" : 0,
									"patching_rect" : [ 313.700012, 208.0, 25.0, 21.0 ],
									"text" : "a2",
									"textcolor" : [ 0.501961, 0.501961, 0.501961, 1.0 ]
								}

							}
, 							{
								"box" : 								{
									"fontname" : "Arial",
									"fontsize" : 13.0,
									"frgb" : [ 0.501961, 0.501961, 0.501961, 1.0 ],
									"id" : "obj-15",
									"maxclass" : "comment",
									"numinlets" : 1,
									"numoutlets" : 0,
									"patching_rect" : [ 239.299988, 208.0, 25.0, 21.0 ],
									"text" : "a1",
									"textcolor" : [ 0.501961, 0.501961, 0.501961, 1.0 ]
								}

							}
, 							{
								"box" : 								{
									"fontname" : "Arial",
									"fontsize" : 13.0,
									"frgb" : [ 0.501961, 0.501961, 0.501961, 1.0 ],
									"id" : "obj-13",
									"maxclass" : "comment",
									"numinlets" : 1,
									"numoutlets" : 0,
									"patching_rect" : [ 162.0, 208.0, 25.0, 21.0 ],
									"text" : "a0",
									"textcolor" : [ 0.501961, 0.501961, 0.501961, 1.0 ]
								}

							}
, 							{
								"box" : 								{
									"fontname" : "Arial",
									"fontsize" : 13.0,
									"frgb" : [ 0.501961, 0.501961, 0.501961, 1.0 ],
									"id" : "obj-11",
									"maxclass" : "comment",
									"numinlets" : 1,
									"numoutlets" : 0,
									"patching_rect" : [ 87.0, 208.0, 40.0, 21.0 ],
									"text" : "input",
									"textcolor" : [ 0.501961, 0.501961, 0.501961, 1.0 ]
								}

							}
, 							{
								"box" : 								{
									"fontname" : "Arial",
									"fontsize" : 13.0,
									"frgb" : [ 0.501961, 0.501961, 0.501961, 1.0 ],
									"id" : "obj-8",
									"maxclass" : "comment",
									"numinlets" : 1,
									"numoutlets" : 0,
									"patching_rect" : [ 87.0, 275.0, 92.0, 21.0 ],
									"text" : "filtered output",
									"textcolor" : [ 0.501961, 0.501961, 0.501961, 1.0 ]
								}

							}
, 							{
								"box" : 								{
									"fontname" : "Arial",
									"fontsize" : 13.0,
									"frgb" : [ 0.501961, 0.501961, 0.501961, 1.0 ],
									"id" : "obj-10",
									"maxclass" : "comment",
									"numinlets" : 1,
									"numoutlets" : 0,
									"patching_rect" : [ 195.700012, 264.0, 261.0, 21.0 ],
									"text" : "arguments are coefficients (all default to 0)",
									"textcolor" : [ 0.501961, 0.501961, 0.501961, 1.0 ]
								}

							}
, 							{
								"box" : 								{
									"bubble" : 1,
									"bubblepoint" : 0.390001,
									"bubbleside" : 2,
									"fontname" : "Arial",
									"fontsize" : 13.0,
									"id" : "obj-6",
									"maxclass" : "comment",
									"numinlets" : 1,
									"numoutlets" : 0,
									"patching_rect" : [ 132.0, 148.0, 315.0, 40.0 ],
									"text" : "increase a1 to make the \"train\" work harder"
								}

							}
, 							{
								"box" : 								{
									"bgcolor" : [ 1.0, 1.0, 1.0, 1.0 ],
									"border" : 1.75,
									"bordercolor" : [ 0.501961, 0.501961, 0.501961, 1.0 ],
									"id" : "obj-1",
									"local" : 1,
									"maxclass" : "ezdac~",
									"numinlets" : 2,
									"numoutlets" : 0,
									"patching_rect" : [ 78.0, 366.0, 44.0, 44.0 ],
									"prototypename" : "helpfile"
								}

							}
, 							{
								"box" : 								{
									"fontname" : "Arial",
									"fontsize" : 13.0,
									"id" : "obj-21",
									"maxclass" : "message",
									"numinlets" : 2,
									"numoutlets" : 1,
									"outlettype" : [ "" ],
									"patching_rect" : [ 41.0, 132.0, 43.0, 19.0 ],
									"text" : "clear"
								}

							}
, 							{
								"box" : 								{
									"fontname" : "Arial",
									"fontsize" : 13.0,
									"id" : "obj-29",
									"maxclass" : "flonum",
									"numinlets" : 1,
									"numoutlets" : 2,
									"outlettype" : [ "float", "bang" ],
									"parameter_enable" : 0,
									"patching_rect" : [ 450.0, 188.0, 54.0, 21.0 ]
								}

							}
, 							{
								"box" : 								{
									"fontname" : "Arial",
									"fontsize" : 13.0,
									"id" : "obj-30",
									"maxclass" : "flonum",
									"numinlets" : 1,
									"numoutlets" : 2,
									"outlettype" : [ "float", "bang" ],
									"parameter_enable" : 0,
									"patching_rect" : [ 375.600006, 188.0, 54.0, 21.0 ]
								}

							}
, 							{
								"box" : 								{
									"fontname" : "Arial",
									"fontsize" : 13.0,
									"id" : "obj-31",
									"maxclass" : "flonum",
									"numinlets" : 1,
									"numoutlets" : 2,
									"outlettype" : [ "float", "bang" ],
									"parameter_enable" : 0,
									"patching_rect" : [ 301.200012, 188.0, 54.0, 21.0 ]
								}

							}
, 							{
								"box" : 								{
									"fontname" : "Arial",
									"fontsize" : 13.0,
									"id" : "obj-32",
									"maxclass" : "flonum",
									"numinlets" : 1,
									"numoutlets" : 2,
									"outlettype" : [ "float", "bang" ],
									"parameter_enable" : 0,
									"patching_rect" : [ 226.799988, 188.0, 54.0, 21.0 ]
								}

							}
, 							{
								"box" : 								{
									"fontname" : "Arial",
									"fontsize" : 13.0,
									"id" : "obj-33",
									"maxclass" : "newobj",
									"numinlets" : 2,
									"numoutlets" : 1,
									"outlettype" : [ "signal" ],
									"patching_rect" : [ 152.399994, 188.0, 69.0, 21.0 ],
									"text" : "cycle~ 2.5"
								}

							}
, 							{
								"box" : 								{
									"fontname" : "Arial",
									"fontsize" : 13.0,
									"id" : "obj-34",
									"maxclass" : "newobj",
									"numinlets" : 1,
									"numoutlets" : 1,
									"outlettype" : [ "signal" ],
									"patching_rect" : [ 78.0, 188.0, 54.0, 21.0 ],
									"text" : "noise~"
								}

							}
, 							{
								"box" : 								{
									"fontname" : "Arial",
									"fontsize" : 13.0,
									"id" : "obj-35",
									"maxclass" : "newobj",
									"numinlets" : 6,
									"numoutlets" : 1,
									"outlettype" : [ "signal" ],
									"patching_rect" : [ 78.0, 243.0, 391.0, 21.0 ],
									"text" : "biquad~ 0.9 0.1 0.1 0.2 0.2"
								}

							}
, 							{
								"box" : 								{
									"border" : 0,
									"filename" : "helpname.js",
									"id" : "obj-7",
									"jsarguments" : [ "biquad~" ],
									"maxclass" : "jsui",
									"numinlets" : 1,
									"numoutlets" : 1,
									"outlettype" : [ "" ],
									"parameter_enable" : 0,
									"patching_rect" : [ 10.0, 10.0, 305.0, 55.0 ]
								}

							}
, 							{
								"box" : 								{
									"background" : 1,
									"channels" : 1,
									"id" : "obj-3",
									"maxclass" : "live.gain~",
									"numinlets" : 1,
									"numoutlets" : 4,
									"orientation" : 1,
									"outlettype" : [ "signal", "", "float", "list" ],
									"parameter_enable" : 1,
									"patching_rect" : [ 78.0, 306.0, 120.0, 31.0 ],
									"presentation_rect" : [ 150.0, 150.0, 50.0, 31.0 ],
									"saved_attribute_attributes" : 									{
										"valueof" : 										{
											"parameter_mmin" : -70.0,
											"parameter_initial" : [ -200 ],
											"parameter_type" : 0,
											"parameter_initial_enable" : 1,
											"parameter_shortname" : "live.gain~",
											"parameter_longname" : "live.gain~[4]",
											"parameter_unitstyle" : 4,
											"parameter_mmax" : 6.0
										}

									}
,
									"showname" : 0,
									"varname" : "live.gain~"
								}

							}
 ],
						"lines" : [ 							{
								"patchline" : 								{
									"destination" : [ "obj-35", 0 ],
									"disabled" : 0,
									"hidden" : 0,
									"source" : [ "obj-21", 0 ]
								}

							}
, 							{
								"patchline" : 								{
									"destination" : [ "obj-35", 5 ],
									"disabled" : 0,
									"hidden" : 0,
									"source" : [ "obj-29", 0 ]
								}

							}
, 							{
								"patchline" : 								{
									"destination" : [ "obj-1", 1 ],
									"disabled" : 0,
									"hidden" : 0,
									"source" : [ "obj-3", 0 ]
								}

							}
, 							{
								"patchline" : 								{
									"destination" : [ "obj-1", 0 ],
									"disabled" : 0,
									"hidden" : 0,
									"source" : [ "obj-3", 0 ]
								}

							}
, 							{
								"patchline" : 								{
									"destination" : [ "obj-35", 4 ],
									"disabled" : 0,
									"hidden" : 0,
									"source" : [ "obj-30", 0 ]
								}

							}
, 							{
								"patchline" : 								{
									"destination" : [ "obj-35", 3 ],
									"disabled" : 0,
									"hidden" : 0,
									"source" : [ "obj-31", 0 ]
								}

							}
, 							{
								"patchline" : 								{
									"destination" : [ "obj-35", 2 ],
									"disabled" : 0,
									"hidden" : 0,
									"source" : [ "obj-32", 0 ]
								}

							}
, 							{
								"patchline" : 								{
									"destination" : [ "obj-35", 1 ],
									"disabled" : 0,
									"hidden" : 0,
									"source" : [ "obj-33", 0 ]
								}

							}
, 							{
								"patchline" : 								{
									"destination" : [ "obj-35", 0 ],
									"disabled" : 0,
									"hidden" : 0,
									"source" : [ "obj-34", 0 ]
								}

							}
, 							{
								"patchline" : 								{
									"destination" : [ "obj-3", 0 ],
									"disabled" : 0,
									"hidden" : 0,
									"source" : [ "obj-35", 0 ]
								}

							}
 ],
						"dependency_cache" : [ 							{
								"name" : "helpname.js",
								"bootpath" : "/trunk/maxmsp-misc/help/resources",
								"type" : "TEXT",
								"implicit" : 1
							}
 ]
					}
,
					"patching_rect" : [ 15.0, 107.0, 82.0, 20.0 ],
					"saved_object_attributes" : 					{
						"fontface" : 0,
						"fontsize" : 13.0,
						"default_fontface" : 0,
						"digest" : "",
						"default_fontname" : "Arial",
						"fontname" : "Arial",
						"tags" : "",
						"default_fontsize" : 13.0,
						"description" : "",
						"globalpatchername" : ""
					}
,
					"text" : "p coefficients",
					"varname" : "basic_tab[4]"
				}

			}
, 			{
				"box" : 				{
					"fontname" : "Arial",
					"fontsize" : 12.0,
					"id" : "obj-8",
					"maxclass" : "newobj",
					"numinlets" : 0,
					"numoutlets" : 0,
					"patcher" : 					{
						"fileversion" : 1,
						"appversion" : 						{
							"major" : 6,
							"minor" : 0,
							"revision" : 2
						}
,
						"rect" : [ 0.0, 26.0, 700.0, 428.0 ],
						"bglocked" : 0,
						"openinpresentation" : 0,
						"default_fontsize" : 13.0,
						"default_fontface" : 0,
						"default_fontname" : "Arial",
						"gridonopen" : 0,
						"gridsize" : [ 5.0, 5.0 ],
						"gridsnaponopen" : 0,
						"statusbarvisible" : 2,
						"toolbarvisible" : 1,
						"boxanimatetime" : 200,
						"imprint" : 0,
						"enablehscroll" : 1,
						"enablevscroll" : 1,
						"devicewidth" : 0.0,
						"description" : "",
						"digest" : "",
						"tags" : "",
						"showontab" : 1,
						"boxes" : [ 							{
								"box" : 								{
									"attr" : "frequency",
									"fontname" : "Arial",
									"fontsize" : 13.0,
									"id" : "obj-15",
									"lock" : 1,
									"maxclass" : "attrui",
									"numinlets" : 1,
									"numoutlets" : 1,
									"orientation" : 1,
									"outlettype" : [ "" ],
									"patching_rect" : [ 203.0, 58.0, 110.5, 42.0 ],
									"text_width" : 83.0
								}

							}
, 							{
								"box" : 								{
									"attr" : "response",
									"fontname" : "Arial",
									"fontsize" : 13.0,
									"id" : "obj-14",
									"lock" : 1,
									"maxclass" : "attrui",
									"numinlets" : 1,
									"numoutlets" : 1,
									"orientation" : 1,
									"outlettype" : [ "" ],
									"patching_rect" : [ 316.5, 58.0, 110.5, 42.0 ],
									"text_width" : 83.0
								}

							}
, 							{
								"box" : 								{
									"attr" : "topology",
									"fontname" : "Arial",
									"fontsize" : 13.0,
									"id" : "obj-13",
									"lock" : 1,
									"maxclass" : "attrui",
									"numinlets" : 1,
									"numoutlets" : 1,
									"orientation" : 1,
									"outlettype" : [ "" ],
									"patching_rect" : [ 432.0, 58.0, 110.5, 42.0 ],
									"text_width" : 83.0
								}

							}
, 							{
								"box" : 								{
									"bubble" : 1,
									"bubbleside" : 3,
									"fontname" : "Arial",
									"fontsize" : 13.0,
									"id" : "obj-12",
									"linecount" : 6,
									"maxclass" : "comment",
									"numinlets" : 1,
									"numoutlets" : 0,
									"patching_rect" : [ 59.0, 70.5, 133.0, 100.0 ],
									"text" : "biquad~ can take coefficients from filterdesign provided that the filter is limited to second-order."
								}

							}
, 							{
								"box" : 								{
									"channels" : 1,
									"id" : "obj-8",
									"maxclass" : "live.gain~",
									"numinlets" : 1,
									"numoutlets" : 4,
									"orientation" : 1,
									"outlettype" : [ "signal", "", "float", "list" ],
									"parameter_enable" : 1,
									"patching_rect" : [ 27.0, 270.0, 120.0, 31.0 ],
									"presentation_rect" : [ 135.0, 135.0, 50.0, 31.0 ],
									"saved_attribute_attributes" : 									{
										"valueof" : 										{
											"parameter_mmin" : -70.0,
											"parameter_initial" : [ -200 ],
											"parameter_type" : 0,
											"parameter_initial_enable" : 1,
											"parameter_shortname" : "live.gain~",
											"parameter_longname" : "live.gain~[3]",
											"parameter_unitstyle" : 4,
											"parameter_mmax" : 6.0
										}

									}
,
									"showname" : 0,
									"varname" : "live.gain~"
								}

							}
, 							{
								"box" : 								{
									"bgcolor" : [ 1.0, 1.0, 1.0, 1.0 ],
									"border" : 1.75,
									"bordercolor" : [ 0.501961, 0.501961, 0.501961, 1.0 ],
									"id" : "obj-11",
									"local" : 1,
									"maxclass" : "ezdac~",
									"numinlets" : 2,
									"numoutlets" : 0,
									"patching_rect" : [ 27.0, 320.0, 44.0, 44.0 ],
									"prototypename" : "helpfile"
								}

							}
, 							{
								"box" : 								{
									"border" : 0,
									"filename" : "helpname.js",
									"id" : "obj-7",
									"jsarguments" : [ "biquad~" ],
									"maxclass" : "jsui",
									"numinlets" : 1,
									"numoutlets" : 1,
									"outlettype" : [ "" ],
									"parameter_enable" : 0,
									"patching_rect" : [ 10.0, 10.0, 305.0, 55.0 ]
								}

							}
, 							{
								"box" : 								{
									"fontname" : "Arial",
									"fontsize" : 13.0,
									"id" : "obj-10",
									"maxclass" : "newobj",
									"numinlets" : 1,
									"numoutlets" : 1,
									"outlettype" : [ "signal" ],
									"patching_rect" : [ 27.0, 204.0, 51.0, 21.0 ],
									"text" : "noise~"
								}

							}
, 							{
								"box" : 								{
									"fontname" : "Arial",
									"fontsize" : 11.595187,
									"hidden" : 1,
									"id" : "obj-9",
									"maxclass" : "newobj",
									"numinlets" : 1,
									"numoutlets" : 1,
									"outlettype" : [ "" ],
									"patching_rect" : [ 385.0, 18.0, 91.0, 20.0 ],
									"text" : "loadmess 4000"
								}

							}
, 							{
								"box" : 								{
									"fontname" : "Arial",
									"fontsize" : 13.0,
									"id" : "obj-6",
									"maxclass" : "newobj",
									"numinlets" : 0,
									"numoutlets" : 1,
									"outlettype" : [ "" ],
									"patcher" : 									{
										"fileversion" : 1,
										"appversion" : 										{
											"major" : 6,
											"minor" : 0,
											"revision" : 2
										}
,
										"rect" : [ 765.0, 356.0, 640.0, 480.0 ],
										"bglocked" : 0,
										"openinpresentation" : 0,
										"default_fontsize" : 13.0,
										"default_fontface" : 0,
										"default_fontname" : "Helvetica Neue Light",
										"gridonopen" : 0,
										"gridsize" : [ 5.0, 5.0 ],
										"gridsnaponopen" : 0,
										"statusbarvisible" : 2,
										"toolbarvisible" : 1,
										"boxanimatetime" : 200,
										"imprint" : 0,
										"enablehscroll" : 1,
										"enablevscroll" : 1,
										"devicewidth" : 0.0,
										"description" : "",
										"digest" : "",
										"tags" : "",
										"boxes" : [ 											{
												"box" : 												{
													"fontname" : "Helvetica Neue Light",
													"fontsize" : 13.0,
													"id" : "obj-7",
													"maxclass" : "message",
													"numinlets" : 2,
													"numoutlets" : 1,
													"outlettype" : [ "" ],
													"patching_rect" : [ 125.0, 265.0, 173.0, 20.0 ],
													"text" : "domainlabel \"frequency (hz)\""
												}

											}
, 											{
												"box" : 												{
													"fontname" : "Helvetica Neue Light",
													"fontsize" : 13.0,
													"id" : "obj-6",
													"maxclass" : "message",
													"numinlets" : 2,
													"numoutlets" : 1,
													"outlettype" : [ "" ],
													"patching_rect" : [ 100.0, 230.0, 382.0, 20.0 ],
													"text" : "definexlabels 10 \"10\" 100 \"100\" 1000 1K 10000 10K 20000 20K"
												}

											}
, 											{
												"box" : 												{
													"fontname" : "Helvetica Neue Light",
													"fontsize" : 13.0,
													"id" : "obj-5",
													"linecount" : 2,
													"maxclass" : "message",
													"numinlets" : 2,
													"numoutlets" : 1,
													"outlettype" : [ "" ],
													"patching_rect" : [ 75.0, 185.0, 555.0, 36.0 ],
													"text" : "definexgrid 0 10 20 30 40 50 60 70 80 90 100 200 300 400 500 600 700 800 900 1000 2000 3000 4000 5000 6000 7000 8000 9000 10000 20000 22050"
												}

											}
, 											{
												"box" : 												{
													"fontname" : "Helvetica Neue Light",
													"fontsize" : 13.0,
													"id" : "obj-4",
													"maxclass" : "message",
													"numinlets" : 2,
													"numoutlets" : 1,
													"outlettype" : [ "" ],
													"patching_rect" : [ 30.0, 160.0, 168.0, 20.0 ],
													"text" : "definedomain 0. 22050. log"
												}

											}
, 											{
												"box" : 												{
													"comment" : "",
													"id" : "obj-1",
													"maxclass" : "outlet",
													"numinlets" : 1,
													"numoutlets" : 0,
													"patching_rect" : [ 100.0, 335.0, 25.0, 25.0 ]
												}

											}
 ],
										"lines" : [ 											{
												"patchline" : 												{
													"destination" : [ "obj-1", 0 ],
													"disabled" : 0,
													"hidden" : 0,
													"source" : [ "obj-4", 0 ]
												}

											}
, 											{
												"patchline" : 												{
													"destination" : [ "obj-1", 0 ],
													"disabled" : 0,
													"hidden" : 0,
													"source" : [ "obj-5", 0 ]
												}

											}
, 											{
												"patchline" : 												{
													"destination" : [ "obj-1", 0 ],
													"disabled" : 0,
													"hidden" : 0,
													"source" : [ "obj-6", 0 ]
												}

											}
, 											{
												"patchline" : 												{
													"destination" : [ "obj-1", 0 ],
													"disabled" : 0,
													"hidden" : 0,
													"source" : [ "obj-7", 0 ]
												}

											}
 ],
										"dependency_cache" : [  ]
									}
,
									"patching_rect" : [ 322.0, 141.0, 83.0, 21.0 ],
									"saved_object_attributes" : 									{
										"fontface" : 0,
										"fontsize" : 13.0,
										"default_fontface" : 0,
										"digest" : "",
										"default_fontname" : "Helvetica Neue Light",
										"fontname" : "Helvetica Neue Light",
										"tags" : "",
										"default_fontsize" : 13.0,
										"description" : "",
										"globalpatchername" : ""
									}
,
									"text" : "p plot_setup"
								}

							}
, 							{
								"box" : 								{
									"domainlabel" : "frequency (hz)",
									"id" : "obj-35",
									"margins" : [ 8.0, 8.0, 20.0, 50.0 ],
									"maxclass" : "plot~",
									"numinlets" : 1,
									"numoutlets" : 1,
									"numpoints" : 512,
									"outlettype" : [ "" ],
									"patching_rect" : [ 213.0, 171.0, 347.0, 212.0 ],
									"rangelabel" : "magnitude (db)",
									"subplots" : [ 										{
											"color" : [ 0.4, 0.4, 0.75, 1.0 ],
											"thickness" : 1.5,
											"point_style" : "none",
											"line_style" : "linear",
											"number_style" : "none",
											"filter" : "atodb",
											"domain_start" : 0.0,
											"domain_end" : 22050.0,
											"domain_style" : "log",
											"domain_markers" : [ 22050.0, 20000.0, 10000.0, 9000.0, 8000.0, 7000.0, 6000.0, 5000.0, 4000.0, 3000.0, 2000.0, 1000.0, 900.0, 800.0, 700.0, 600.0, 500.0, 400.0, 300.0, 200.0, 100.0, 90.0, 80.0, 70.0, 60.0, 50.0, 40.0, 30.0, 20.0, 10.0, 0.0 ],
											"domain_labels" : [ 10.0, "10", 100.0, "100", 1000.0, "1K", 10000.0, "10K", 20000.0, "20K" ],
											"range_start" : -120.0,
											"range_end" : 24.0,
											"range_style" : "linear",
											"range_markers" : [ -120.0, -108.0, -96.0, -84.0, -72.0, -60.0, -48.0, -36.0, -24.0, -12.0, 0.0, 12.0, 24.0 ],
											"range_labels" : [ -120.0, "-120", -108.0, "-108", -96.0, "-96", -84.0, "-84", -72.0, "-72", -60.0, "-60", -48.0, "-48", -36.0, "-36", -24.0, "-24", -12.0, "-12", 0.0, "0", 12.0, "12", 24.0, "24" ],
											"origin_x" : 0.0,
											"origin_y" : 0.0
										}
 ]
								}

							}
, 							{
								"box" : 								{
									"fontname" : "Arial",
									"fontsize" : 13.0,
									"id" : "obj-5",
									"maxclass" : "newobj",
									"numinlets" : 1,
									"numoutlets" : 6,
									"outlettype" : [ "", "", "", "", "", "" ],
									"patching_rect" : [ 213.0, 141.0, 96.0, 21.0 ],
									"text" : "filterdetail"
								}

							}
, 							{
								"box" : 								{
									"fontname" : "Arial",
									"fontsize" : 13.0,
									"id" : "obj-1",
									"maxclass" : "newobj",
									"numinlets" : 1,
									"numoutlets" : 1,
									"outlettype" : [ "dictionary" ],
									"patching_rect" : [ 203.0, 110.0, 136.0, 21.0 ],
									"text" : "filterdesign @order 2"
								}

							}
, 							{
								"box" : 								{
									"fontname" : "Arial",
									"fontsize" : 13.0,
									"id" : "obj-20",
									"maxclass" : "newobj",
									"numinlets" : 6,
									"numoutlets" : 1,
									"outlettype" : [ "signal" ],
									"patching_rect" : [ 27.0, 242.0, 107.0, 21.0 ],
									"text" : "biquad~"
								}

							}
 ],
						"lines" : [ 							{
								"patchline" : 								{
									"destination" : [ "obj-20", 0 ],
									"disabled" : 0,
									"hidden" : 0,
									"source" : [ "obj-1", 0 ]
								}

							}
, 							{
								"patchline" : 								{
									"destination" : [ "obj-5", 0 ],
									"disabled" : 0,
									"hidden" : 0,
									"source" : [ "obj-1", 0 ]
								}

							}
, 							{
								"patchline" : 								{
									"destination" : [ "obj-20", 0 ],
									"disabled" : 0,
									"hidden" : 0,
									"source" : [ "obj-10", 0 ]
								}

							}
, 							{
								"patchline" : 								{
									"destination" : [ "obj-1", 0 ],
									"disabled" : 0,
									"hidden" : 0,
									"source" : [ "obj-13", 0 ]
								}

							}
, 							{
								"patchline" : 								{
									"destination" : [ "obj-1", 0 ],
									"disabled" : 0,
									"hidden" : 0,
									"source" : [ "obj-14", 0 ]
								}

							}
, 							{
								"patchline" : 								{
									"destination" : [ "obj-1", 0 ],
									"disabled" : 0,
									"hidden" : 0,
									"source" : [ "obj-15", 0 ]
								}

							}
, 							{
								"patchline" : 								{
									"destination" : [ "obj-8", 0 ],
									"disabled" : 0,
									"hidden" : 0,
									"source" : [ "obj-20", 0 ]
								}

							}
, 							{
								"patchline" : 								{
									"destination" : [ "obj-35", 0 ],
									"disabled" : 0,
									"hidden" : 0,
									"source" : [ "obj-5", 0 ]
								}

							}
, 							{
								"patchline" : 								{
									"destination" : [ "obj-35", 0 ],
									"disabled" : 0,
									"hidden" : 0,
									"midpoints" : [ 331.5, 167.0, 222.5, 167.0 ],
									"source" : [ "obj-6", 0 ]
								}

							}
, 							{
								"patchline" : 								{
									"destination" : [ "obj-11", 1 ],
									"disabled" : 0,
									"hidden" : 0,
									"source" : [ "obj-8", 0 ]
								}

							}
, 							{
								"patchline" : 								{
									"destination" : [ "obj-11", 0 ],
									"disabled" : 0,
									"hidden" : 0,
									"source" : [ "obj-8", 0 ]
								}

							}
, 							{
								"patchline" : 								{
									"destination" : [ "obj-15", 0 ],
									"disabled" : 0,
									"hidden" : 1,
									"source" : [ "obj-9", 0 ]
								}

							}
 ],
						"dependency_cache" : [ 							{
								"name" : "helpname.js",
								"bootpath" : "/trunk/maxmsp-misc/help/resources",
								"type" : "TEXT",
								"implicit" : 1
							}
 ]
					}
,
					"patching_rect" : [ 15.0, 155.0, 81.0, 20.0 ],
					"saved_object_attributes" : 					{
						"fontface" : 0,
						"fontsize" : 13.0,
						"default_fontface" : 0,
						"digest" : "",
						"default_fontname" : "Arial",
						"fontname" : "Arial",
						"tags" : "",
						"default_fontsize" : 13.0,
						"description" : "",
						"globalpatchername" : ""
					}
,
					"text" : "p filterdesign",
					"varname" : "basic_tab[2]"
				}

			}
, 			{
				"box" : 				{
					"fontname" : "Arial",
					"fontsize" : 12.0,
					"id" : "obj-7",
					"maxclass" : "newobj",
					"numinlets" : 0,
					"numoutlets" : 0,
					"patcher" : 					{
						"fileversion" : 1,
						"appversion" : 						{
							"major" : 6,
							"minor" : 0,
							"revision" : 2
						}
,
						"rect" : [ 0.0, 26.0, 700.0, 428.0 ],
						"bglocked" : 0,
						"openinpresentation" : 0,
						"default_fontsize" : 13.0,
						"default_fontface" : 0,
						"default_fontname" : "Arial",
						"gridonopen" : 0,
						"gridsize" : [ 5.0, 5.0 ],
						"gridsnaponopen" : 0,
						"statusbarvisible" : 2,
						"toolbarvisible" : 1,
						"boxanimatetime" : 200,
						"imprint" : 0,
						"enablehscroll" : 1,
						"enablevscroll" : 1,
						"devicewidth" : 0.0,
						"description" : "",
						"digest" : "",
						"tags" : "",
						"showontab" : 1,
						"boxes" : [ 							{
								"box" : 								{
									"bubble" : 1,
									"bubbleside" : 2,
									"fontname" : "Arial",
									"fontsize" : 13.0,
									"id" : "obj-28",
									"linecount" : 2,
									"maxclass" : "comment",
									"numinlets" : 1,
									"numoutlets" : 0,
									"patching_rect" : [ 458.0, 153.0, 88.0, 55.0 ],
									"text" : "initial phase in pi-radians"
								}

							}
, 							{
								"box" : 								{
									"bubble" : 1,
									"bubbleside" : 2,
									"fontname" : "Arial",
									"fontsize" : 13.0,
									"id" : "obj-27",
									"maxclass" : "comment",
									"numinlets" : 1,
									"numoutlets" : 0,
									"patching_rect" : [ 321.5, 136.0, 65.0, 40.0 ],
									"text" : "freq (Hz)"
								}

							}
, 							{
								"box" : 								{
									"channels" : 1,
									"fontface" : 0,
									"fontsize" : 12.0,
									"id" : "obj-26",
									"maxclass" : "live.gain~",
									"numinlets" : 1,
									"numoutlets" : 4,
									"outlettype" : [ "signal", "", "float", "list" ],
									"parameter_enable" : 1,
									"patching_rect" : [ 17.0, 230.0, 54.0, 136.0 ],
									"saved_attribute_attributes" : 									{
										"valueof" : 										{
											"parameter_mmin" : -70.0,
											"parameter_initial" : [ -70 ],
											"parameter_type" : 0,
											"parameter_initial_enable" : 1,
											"parameter_shortname" : "live.gain~",
											"parameter_longname" : "live.gain~",
											"parameter_unitstyle" : 4,
											"parameter_mmax" : 6.0
										}

									}
,
									"showname" : 0,
									"varname" : "live.gain~"
								}

							}
, 							{
								"box" : 								{
									"bgcolor" : [ 1.0, 1.0, 1.0, 1.0 ],
									"border" : 1.75,
									"bordercolor" : [ 0.501961, 0.501961, 0.501961, 1.0 ],
									"id" : "obj-25",
									"local" : 1,
									"maxclass" : "ezdac~",
									"numinlets" : 2,
									"numoutlets" : 0,
									"patching_rect" : [ 17.0, 376.0, 44.0, 44.0 ],
									"prototypename" : "helpfile"
								}

							}
, 							{
								"box" : 								{
									"fontname" : "Arial",
									"fontsize" : 13.0,
									"frgb" : [ 0.501961, 0.501961, 0.501961, 1.0 ],
									"id" : "obj-23",
									"linecount" : 2,
									"maxclass" : "comment",
									"numinlets" : 1,
									"numoutlets" : 0,
									"patching_rect" : [ 10.0, 109.0, 524.0, 36.0 ],
									"text" : "n.b.: currently needs to be stoked AFTER dsp has been started, because starting the dsp will reset the sample memory.",
									"textcolor" : [ 0.501961, 0.501961, 0.501961, 1.0 ]
								}

							}
, 							{
								"box" : 								{
									"fontname" : "Arial",
									"fontsize" : 13.0,
									"frgb" : [ 0.501961, 0.501961, 0.501961, 1.0 ],
									"id" : "obj-22",
									"linecount" : 2,
									"maxclass" : "comment",
									"numinlets" : 1,
									"numoutlets" : 0,
									"patching_rect" : [ 10.0, 65.0, 522.0, 36.0 ],
									"text" : "The stoke message can be used to artificially set the delay memory. This example uses just the feedback samples of the biquad~ (with no input!) to create an oscillation.",
									"textcolor" : [ 0.501961, 0.501961, 0.501961, 1.0 ]
								}

							}
, 							{
								"box" : 								{
									"border" : 0,
									"filename" : "helpname.js",
									"id" : "obj-19",
									"jsarguments" : [ "biquad~" ],
									"maxclass" : "jsui",
									"numinlets" : 1,
									"numoutlets" : 1,
									"outlettype" : [ "" ],
									"parameter_enable" : 0,
									"patching_rect" : [ 10.0, 10.0, 305.0, 55.0 ]
								}

							}
, 							{
								"box" : 								{
									"fontname" : "Arial",
									"fontsize" : 13.0,
									"id" : "obj-1",
									"maxclass" : "newobj",
									"numinlets" : 2,
									"numoutlets" : 1,
									"outlettype" : [ "float" ],
									"patching_rect" : [ 368.666656, 252.0, 38.0, 21.0 ],
									"text" : "* 0.5"
								}

							}
, 							{
								"box" : 								{
									"fontname" : "Arial",
									"fontsize" : 13.0,
									"id" : "obj-2",
									"maxclass" : "newobj",
									"numinlets" : 1,
									"numoutlets" : 4,
									"outlettype" : [ "int", "float", "int", "int" ],
									"patching_rect" : [ 352.0, 225.0, 69.0, 21.0 ],
									"text" : "dspstate~"
								}

							}
, 							{
								"box" : 								{
									"fontname" : "Arial",
									"fontsize" : 13.0,
									"htextcolor" : [ 0.870588, 0.870588, 0.870588, 1.0 ],
									"id" : "obj-4",
									"maxclass" : "flonum",
									"numinlets" : 1,
									"numoutlets" : 2,
									"outlettype" : [ "float", "bang" ],
									"parameter_enable" : 0,
									"patching_rect" : [ 475.0, 208.0, 54.0, 21.0 ],
									"presentation_rect" : [ 15.0, 15.0, 50.0, 21.0 ],
									"triscale" : 0.9
								}

							}
, 							{
								"box" : 								{
									"fontname" : "Arial",
									"fontsize" : 13.0,
									"id" : "obj-6",
									"maxclass" : "newobj",
									"numinlets" : 2,
									"numoutlets" : 1,
									"outlettype" : [ "float" ],
									"patching_rect" : [ 516.0, 339.0, 35.0, 21.0 ],
									"text" : "* -2."
								}

							}
, 							{
								"box" : 								{
									"fontname" : "Arial",
									"fontsize" : 13.0,
									"id" : "obj-7",
									"maxclass" : "newobj",
									"numinlets" : 1,
									"numoutlets" : 1,
									"outlettype" : [ "float" ],
									"patching_rect" : [ 516.0, 315.0, 31.0, 21.0 ],
									"text" : "cos"
								}

							}
, 							{
								"box" : 								{
									"fontname" : "Arial",
									"fontsize" : 13.0,
									"id" : "obj-8",
									"maxclass" : "newobj",
									"numinlets" : 1,
									"numoutlets" : 1,
									"outlettype" : [ "float" ],
									"patching_rect" : [ 422.5, 363.0, 28.0, 21.0 ],
									"text" : "sin"
								}

							}
, 							{
								"box" : 								{
									"fontname" : "Arial",
									"fontsize" : 13.0,
									"id" : "obj-9",
									"maxclass" : "newobj",
									"numinlets" : 1,
									"numoutlets" : 1,
									"outlettype" : [ "float" ],
									"patching_rect" : [ 329.0, 363.0, 28.0, 21.0 ],
									"text" : "sin"
								}

							}
, 							{
								"box" : 								{
									"fontname" : "Arial",
									"fontsize" : 13.0,
									"id" : "obj-10",
									"maxclass" : "message",
									"numinlets" : 2,
									"numoutlets" : 1,
									"outlettype" : [ "" ],
									"patching_rect" : [ 17.0, 171.0, 188.0, 19.0 ],
									"text" : "0 0 0 $3 1, stoke 0 0 $1 $2"
								}

							}
, 							{
								"box" : 								{
									"fontname" : "Arial",
									"fontsize" : 13.0,
									"id" : "obj-11",
									"maxclass" : "newobj",
									"numinlets" : 3,
									"numoutlets" : 1,
									"outlettype" : [ "" ],
									"patching_rect" : [ 329.0, 388.0, 206.0, 21.0 ],
									"text" : "pack 0. 0. 0."
								}

							}
, 							{
								"box" : 								{
									"fontname" : "Arial",
									"fontsize" : 13.0,
									"id" : "obj-12",
									"maxclass" : "newobj",
									"numinlets" : 2,
									"numoutlets" : 1,
									"outlettype" : [ "float" ],
									"patching_rect" : [ 423.0, 310.0, 32.5, 21.0 ],
									"text" : "* 2."
								}

							}
, 							{
								"box" : 								{
									"fontname" : "Arial",
									"fontsize" : 13.0,
									"id" : "obj-13",
									"maxclass" : "newobj",
									"numinlets" : 2,
									"numoutlets" : 1,
									"outlettype" : [ "float" ],
									"patching_rect" : [ 423.0, 334.0, 34.0, 21.0 ],
									"text" : "!- 0."
								}

							}
, 							{
								"box" : 								{
									"fontname" : "Arial",
									"fontsize" : 13.0,
									"id" : "obj-14",
									"maxclass" : "newobj",
									"numinlets" : 2,
									"numoutlets" : 1,
									"outlettype" : [ "float" ],
									"patching_rect" : [ 329.0, 337.0, 34.0, 21.0 ],
									"text" : "!- 0."
								}

							}
, 							{
								"box" : 								{
									"fontname" : "Arial",
									"fontsize" : 13.0,
									"id" : "obj-15",
									"maxclass" : "newobj",
									"numinlets" : 2,
									"numoutlets" : 1,
									"outlettype" : [ "float" ],
									"patching_rect" : [ 329.0, 275.0, 59.0, 21.0 ],
									"text" : "/ 22050."
								}

							}
, 							{
								"box" : 								{
									"fontname" : "Arial",
									"fontsize" : 13.0,
									"htextcolor" : [ 0.870588, 0.870588, 0.870588, 1.0 ],
									"id" : "obj-16",
									"maxclass" : "flonum",
									"numinlets" : 1,
									"numoutlets" : 2,
									"outlettype" : [ "float", "bang" ],
									"parameter_enable" : 0,
									"patching_rect" : [ 329.0, 176.0, 54.0, 21.0 ],
									"presentation_rect" : [ 15.0, 15.0, 50.0, 21.0 ],
									"triscale" : 0.9
								}

							}
, 							{
								"box" : 								{
									"fontname" : "Arial",
									"fontsize" : 13.0,
									"id" : "obj-17",
									"maxclass" : "newobj",
									"numinlets" : 2,
									"numoutlets" : 1,
									"outlettype" : [ "float" ],
									"patching_rect" : [ 329.0, 202.0, 75.0, 21.0 ],
									"text" : "* 3.141593"
								}

							}
, 							{
								"box" : 								{
									"bgcolor" : [ 0.529412, 0.529412, 0.529412, 1.0 ],
									"bufsize" : 32,
									"calccount" : 32,
									"id" : "obj-18",
									"maxclass" : "scope~",
									"numinlets" : 2,
									"numoutlets" : 0,
									"patching_rect" : [ 89.0, 240.0, 130.0, 130.0 ],
									"rounded" : 0
								}

							}
, 							{
								"box" : 								{
									"fontname" : "Arial",
									"fontsize" : 13.0,
									"id" : "obj-20",
									"maxclass" : "newobj",
									"numinlets" : 6,
									"numoutlets" : 1,
									"outlettype" : [ "signal" ],
									"patching_rect" : [ 17.0, 196.0, 107.0, 21.0 ],
									"text" : "biquad~"
								}

							}
 ],
						"lines" : [ 							{
								"patchline" : 								{
									"destination" : [ "obj-15", 1 ],
									"disabled" : 0,
									"hidden" : 0,
									"source" : [ "obj-1", 0 ]
								}

							}
, 							{
								"patchline" : 								{
									"destination" : [ "obj-20", 0 ],
									"disabled" : 0,
									"hidden" : 0,
									"source" : [ "obj-10", 0 ]
								}

							}
, 							{
								"patchline" : 								{
									"destination" : [ "obj-10", 0 ],
									"disabled" : 0,
									"hidden" : 0,
									"midpoints" : [ 338.5, 417.0, 303.5, 417.0, 303.5, 161.0, 26.5, 161.0 ],
									"source" : [ "obj-11", 0 ]
								}

							}
, 							{
								"patchline" : 								{
									"destination" : [ "obj-13", 0 ],
									"disabled" : 0,
									"hidden" : 0,
									"source" : [ "obj-12", 0 ]
								}

							}
, 							{
								"patchline" : 								{
									"destination" : [ "obj-8", 0 ],
									"disabled" : 0,
									"hidden" : 0,
									"source" : [ "obj-13", 0 ]
								}

							}
, 							{
								"patchline" : 								{
									"destination" : [ "obj-9", 0 ],
									"disabled" : 0,
									"hidden" : 0,
									"source" : [ "obj-14", 0 ]
								}

							}
, 							{
								"patchline" : 								{
									"destination" : [ "obj-12", 0 ],
									"disabled" : 0,
									"hidden" : 0,
									"source" : [ "obj-15", 0 ]
								}

							}
, 							{
								"patchline" : 								{
									"destination" : [ "obj-14", 0 ],
									"disabled" : 0,
									"hidden" : 0,
									"source" : [ "obj-15", 0 ]
								}

							}
, 							{
								"patchline" : 								{
									"destination" : [ "obj-7", 0 ],
									"disabled" : 0,
									"hidden" : 0,
									"source" : [ "obj-15", 0 ]
								}

							}
, 							{
								"patchline" : 								{
									"destination" : [ "obj-17", 0 ],
									"disabled" : 0,
									"hidden" : 0,
									"source" : [ "obj-16", 0 ]
								}

							}
, 							{
								"patchline" : 								{
									"destination" : [ "obj-15", 0 ],
									"disabled" : 0,
									"hidden" : 0,
									"source" : [ "obj-17", 0 ]
								}

							}
, 							{
								"patchline" : 								{
									"destination" : [ "obj-1", 0 ],
									"disabled" : 0,
									"hidden" : 0,
									"source" : [ "obj-2", 1 ]
								}

							}
, 							{
								"patchline" : 								{
									"destination" : [ "obj-18", 0 ],
									"disabled" : 0,
									"hidden" : 0,
									"source" : [ "obj-20", 0 ]
								}

							}
, 							{
								"patchline" : 								{
									"destination" : [ "obj-26", 0 ],
									"disabled" : 0,
									"hidden" : 0,
									"source" : [ "obj-20", 0 ]
								}

							}
, 							{
								"patchline" : 								{
									"destination" : [ "obj-25", 1 ],
									"disabled" : 0,
									"hidden" : 0,
									"source" : [ "obj-26", 0 ]
								}

							}
, 							{
								"patchline" : 								{
									"destination" : [ "obj-25", 0 ],
									"disabled" : 0,
									"hidden" : 0,
									"source" : [ "obj-26", 0 ]
								}

							}
, 							{
								"patchline" : 								{
									"destination" : [ "obj-13", 1 ],
									"disabled" : 0,
									"hidden" : 0,
									"source" : [ "obj-4", 0 ]
								}

							}
, 							{
								"patchline" : 								{
									"destination" : [ "obj-14", 1 ],
									"disabled" : 0,
									"hidden" : 0,
									"source" : [ "obj-4", 0 ]
								}

							}
, 							{
								"patchline" : 								{
									"destination" : [ "obj-11", 2 ],
									"disabled" : 0,
									"hidden" : 0,
									"source" : [ "obj-6", 0 ]
								}

							}
, 							{
								"patchline" : 								{
									"destination" : [ "obj-6", 0 ],
									"disabled" : 0,
									"hidden" : 0,
									"source" : [ "obj-7", 0 ]
								}

							}
, 							{
								"patchline" : 								{
									"destination" : [ "obj-11", 1 ],
									"disabled" : 0,
									"hidden" : 0,
									"source" : [ "obj-8", 0 ]
								}

							}
, 							{
								"patchline" : 								{
									"destination" : [ "obj-11", 0 ],
									"disabled" : 0,
									"hidden" : 0,
									"source" : [ "obj-9", 0 ]
								}

							}
 ],
						"dependency_cache" : [ 							{
								"name" : "helpname.js",
								"bootpath" : "/trunk/maxmsp-misc/help/resources",
								"type" : "TEXT",
								"implicit" : 1
							}
 ]
					}
,
					"patching_rect" : [ 17.0, 179.0, 75.0, 20.0 ],
					"saved_object_attributes" : 					{
						"fontface" : 0,
						"fontsize" : 13.0,
						"default_fontface" : 0,
						"digest" : "",
						"default_fontname" : "Arial",
						"fontname" : "Arial",
						"tags" : "",
						"default_fontsize" : 13.0,
						"description" : "",
						"globalpatchername" : ""
					}
,
					"text" : "p oscillation",
					"varname" : "basic_tab[1]"
				}

			}
, 			{
				"box" : 				{
					"fontname" : "Arial",
					"fontsize" : 12.0,
					"id" : "obj-1",
					"maxclass" : "newobj",
					"numinlets" : 1,
					"numoutlets" : 1,
					"outlettype" : [ "" ],
					"patching_rect" : [ 330.0, 262.0, 141.0, 20.0 ],
					"saved_object_attributes" : 					{
						"parameter_enable" : 0
					}
,
					"text" : "js helpstarter.js biquad~"
				}

			}
, 			{
				"box" : 				{
					"fontname" : "Arial",
					"fontsize" : 12.0,
					"id" : "obj-2",
					"maxclass" : "newobj",
					"numinlets" : 0,
					"numoutlets" : 0,
					"patcher" : 					{
						"fileversion" : 1,
						"appversion" : 						{
							"major" : 6,
							"minor" : 0,
							"revision" : 2
						}
,
						"rect" : [ 100.0, 126.0, 700.0, 428.0 ],
						"bglocked" : 0,
						"openinpresentation" : 0,
						"default_fontsize" : 13.0,
						"default_fontface" : 0,
						"default_fontname" : "Arial",
						"gridonopen" : 0,
						"gridsize" : [ 5.0, 5.0 ],
						"gridsnaponopen" : 0,
						"statusbarvisible" : 2,
						"toolbarvisible" : 1,
						"boxanimatetime" : 200,
						"imprint" : 0,
						"enablehscroll" : 1,
						"enablevscroll" : 1,
						"devicewidth" : 0.0,
						"description" : "",
						"digest" : "",
						"tags" : "",
						"showontab" : 1,
						"boxes" : [ 							{
								"box" : 								{
									"channels" : 1,
									"id" : "obj-3",
									"maxclass" : "live.gain~",
									"numinlets" : 1,
									"numoutlets" : 4,
									"orientation" : 1,
									"outlettype" : [ "signal", "", "float", "list" ],
									"parameter_enable" : 1,
									"patching_rect" : [ 10.0, 334.0, 120.0, 31.0 ],
									"presentation_rect" : [ 135.0, 135.0, 50.0, 31.0 ],
									"saved_attribute_attributes" : 									{
										"valueof" : 										{
											"parameter_mmin" : -70.0,
											"parameter_initial" : [ -30 ],
											"parameter_type" : 0,
											"parameter_initial_enable" : 1,
											"parameter_shortname" : "live.gain~",
											"parameter_longname" : "live.gain~[5]",
											"parameter_unitstyle" : 4,
											"parameter_mmax" : 6.0
										}

									}
,
									"showname" : 0,
									"varname" : "live.gain~"
								}

							}
, 							{
								"box" : 								{
									"id" : "obj-1",
									"maxclass" : "bpatcher",
									"name" : "demosound.maxpat",
									"numinlets" : 0,
									"numoutlets" : 1,
									"outlettype" : [ "signal" ],
									"patching_rect" : [ 10.0, 167.0, 225.0, 95.0 ]
								}

							}
, 							{
								"box" : 								{
									"fontname" : "Arial",
									"fontsize" : 13.0,
									"hidden" : 1,
									"id" : "obj-10",
									"maxclass" : "message",
									"numinlets" : 2,
									"numoutlets" : 1,
									"outlettype" : [ "" ],
									"patching_rect" : [ 579.0, 192.5, 48.0, 19.0 ],
									"text" : "set $1"
								}

							}
, 							{
								"box" : 								{
									"fontname" : "Arial",
									"fontsize" : 13.0,
									"hidden" : 1,
									"id" : "obj-9",
									"maxclass" : "message",
									"numinlets" : 2,
									"numoutlets" : 1,
									"outlettype" : [ "" ],
									"patching_rect" : [ 499.0, 192.5, 48.0, 19.0 ],
									"text" : "set $1"
								}

							}
, 							{
								"box" : 								{
									"fontname" : "Arial",
									"fontsize" : 13.0,
									"hidden" : 1,
									"id" : "obj-8",
									"maxclass" : "message",
									"numinlets" : 2,
									"numoutlets" : 1,
									"outlettype" : [ "" ],
									"patching_rect" : [ 404.0, 186.5, 48.0, 19.0 ],
									"text" : "set $1"
								}

							}
, 							{
								"box" : 								{
									"bubble" : 1,
									"bubbleside" : 2,
									"fontname" : "Arial",
									"fontsize" : 13.0,
									"id" : "obj-71",
									"maxclass" : "comment",
									"numinlets" : 1,
									"numoutlets" : 0,
									"patching_rect" : [ 566.5, 182.0, 73.0, 40.0 ],
									"text" : "set Q or S"
								}

							}
, 							{
								"box" : 								{
									"fontname" : "Arial",
									"fontsize" : 13.0,
									"id" : "obj-72",
									"maxclass" : "flonum",
									"numinlets" : 1,
									"numoutlets" : 2,
									"outlettype" : [ "float", "bang" ],
									"parameter_enable" : 0,
									"patching_rect" : [ 579.0, 222.0, 55.0, 21.0 ]
								}

							}
, 							{
								"box" : 								{
									"fontname" : "Arial",
									"fontsize" : 13.0,
									"id" : "obj-74",
									"maxclass" : "flonum",
									"numinlets" : 1,
									"numoutlets" : 2,
									"outlettype" : [ "float", "bang" ],
									"parameter_enable" : 0,
									"patching_rect" : [ 499.0, 222.0, 55.0, 21.0 ]
								}

							}
, 							{
								"box" : 								{
									"fontname" : "Arial",
									"fontsize" : 13.0,
									"id" : "obj-75",
									"maxclass" : "flonum",
									"numinlets" : 1,
									"numoutlets" : 2,
									"outlettype" : [ "float", "bang" ],
									"parameter_enable" : 0,
									"patching_rect" : [ 409.0, 222.0, 57.0, 21.0 ]
								}

							}
, 							{
								"box" : 								{
									"autoout" : 1,
									"bgcolor" : [ 0.913725, 0.913725, 1.0, 1.0 ],
									"bwidthcolor" : [ 0.462745, 0.47451, 0.65098, 1.0 ],
									"domain" : [ 0.0, 22050.0 ],
									"fgcolor" : [ 0.756863, 0.756863, 1.0, 1.0 ],
									"fontname" : "Arial",
									"fontsize" : 12.0,
									"hbwidthcolor" : [ 0.823529, 0.290196, 0.211765, 1.0 ],
									"hcurvecolor" : [ 1.0, 0.086275, 0.086275, 1.0 ],
									"id" : "obj-81",
									"markercolor" : [ 0.509804, 0.509804, 0.509804, 1.0 ],
									"maxclass" : "filtergraph~",
									"nfilters" : 1,
									"numinlets" : 8,
									"numoutlets" : 7,
									"outlettype" : [ "list", "float", "float", "float", "float", "list", "int" ],
									"parameter_enable" : 0,
									"patching_rect" : [ 265.0, 259.5, 360.0, 155.0 ],
									"setfilter" : [ 0, 3, 0, 0, 0, 1608.254761, 1.0, 2.19285, 0.0001, 22050.0, 0.0001, 16.0, 0.5, 25.0 ]
								}

							}
, 							{
								"box" : 								{
									"bubble" : 1,
									"bubbleside" : 2,
									"fontname" : "Arial",
									"fontsize" : 13.0,
									"id" : "obj-82",
									"linecount" : 2,
									"maxclass" : "comment",
									"numinlets" : 1,
									"numoutlets" : 0,
									"patching_rect" : [ 393.375, 167.0, 88.25, 55.0 ],
									"text" : "set cutoff or center freq"
								}

							}
, 							{
								"box" : 								{
									"bubble" : 1,
									"bubbleside" : 2,
									"fontname" : "Arial",
									"fontsize" : 13.0,
									"id" : "obj-83",
									"maxclass" : "comment",
									"numinlets" : 1,
									"numoutlets" : 0,
									"patching_rect" : [ 499.0, 182.0, 59.0, 40.0 ],
									"text" : "set gain"
								}

							}
, 							{
								"box" : 								{
									"bubble" : 1,
									"bubbleside" : 2,
									"fontname" : "Arial",
									"fontsize" : 13.0,
									"id" : "obj-85",
									"maxclass" : "comment",
									"numinlets" : 1,
									"numoutlets" : 0,
									"patching_rect" : [ 247.25, 167.0, 118.0, 40.0 ],
									"text" : "set filter response"
								}

							}
, 							{
								"box" : 								{
									"bubble" : 1,
									"fontname" : "Arial",
									"fontsize" : 13.0,
									"id" : "obj-24",
									"linecount" : 2,
									"maxclass" : "comment",
									"numinlets" : 1,
									"numoutlets" : 0,
									"patching_rect" : [ 72.0, 263.0, 120.0, 40.0 ],
									"text" : "clear biquad~ if filter blows up"
								}

							}
, 							{
								"box" : 								{
									"fontname" : "Arial",
									"fontsize" : 13.0,
									"id" : "obj-63",
									"maxclass" : "message",
									"numinlets" : 2,
									"numoutlets" : 1,
									"outlettype" : [ "" ],
									"patching_rect" : [ 29.0, 273.5, 43.0, 19.0 ],
									"text" : "clear"
								}

							}
, 							{
								"box" : 								{
									"bgcolor" : [ 1.0, 1.0, 1.0, 1.0 ],
									"border" : 1.75,
									"bordercolor" : [ 0.501961, 0.501961, 0.501961, 1.0 ],
									"id" : "obj-6",
									"local" : 1,
									"maxclass" : "ezdac~",
									"numinlets" : 2,
									"numoutlets" : 0,
									"patching_rect" : [ 10.0, 377.0, 44.0, 44.0 ],
									"prototypename" : "helpfile"
								}

							}
, 							{
								"box" : 								{
									"fontname" : "Arial",
									"fontsize" : 13.0,
									"id" : "obj-7",
									"maxclass" : "newobj",
									"numinlets" : 6,
									"numoutlets" : 1,
									"outlettype" : [ "signal" ],
									"patching_rect" : [ 10.0, 309.0, 92.0, 21.0 ],
									"text" : "biquad~"
								}

							}
, 							{
								"box" : 								{
									"attr" : "edit_mode",
									"fontname" : "Arial",
									"fontsize" : 13.0,
									"id" : "obj-12",
									"lock" : 1,
									"maxclass" : "attrui",
									"numinlets" : 1,
									"numoutlets" : 1,
									"orientation" : 1,
									"outlettype" : [ "" ],
									"patching_rect" : [ 265.0, 208.5, 82.5, 42.0 ],
									"text_width" : 83.0
								}

							}
, 							{
								"box" : 								{
									"border" : 0,
									"filename" : "helpdetails.js",
									"id" : "obj-2",
									"jsarguments" : [ "biquad~", 110 ],
									"maxclass" : "jsui",
									"numinlets" : 1,
									"numoutlets" : 1,
									"outlettype" : [ "" ],
									"parameter_enable" : 0,
									"patching_rect" : [ 10.0, 10.0, 673.0, 157.0 ]
								}

							}
 ],
						"lines" : [ 							{
								"patchline" : 								{
									"destination" : [ "obj-7", 0 ],
									"disabled" : 0,
									"hidden" : 0,
									"source" : [ "obj-1", 0 ]
								}

							}
, 							{
								"patchline" : 								{
									"destination" : [ "obj-72", 0 ],
									"disabled" : 0,
									"hidden" : 1,
									"source" : [ "obj-10", 0 ]
								}

							}
, 							{
								"patchline" : 								{
									"destination" : [ "obj-81", 0 ],
									"disabled" : 0,
									"hidden" : 0,
									"source" : [ "obj-12", 0 ]
								}

							}
, 							{
								"patchline" : 								{
									"destination" : [ "obj-6", 1 ],
									"disabled" : 0,
									"hidden" : 0,
									"source" : [ "obj-3", 0 ]
								}

							}
, 							{
								"patchline" : 								{
									"destination" : [ "obj-6", 0 ],
									"disabled" : 0,
									"hidden" : 0,
									"source" : [ "obj-3", 0 ]
								}

							}
, 							{
								"patchline" : 								{
									"destination" : [ "obj-7", 0 ],
									"disabled" : 0,
									"hidden" : 0,
									"source" : [ "obj-63", 0 ]
								}

							}
, 							{
								"patchline" : 								{
									"destination" : [ "obj-3", 0 ],
									"disabled" : 0,
									"hidden" : 0,
									"source" : [ "obj-7", 0 ]
								}

							}
, 							{
								"patchline" : 								{
									"destination" : [ "obj-81", 7 ],
									"disabled" : 0,
									"hidden" : 0,
									"source" : [ "obj-72", 0 ]
								}

							}
, 							{
								"patchline" : 								{
									"destination" : [ "obj-81", 6 ],
									"disabled" : 0,
									"hidden" : 0,
									"source" : [ "obj-74", 0 ]
								}

							}
, 							{
								"patchline" : 								{
									"destination" : [ "obj-81", 5 ],
									"disabled" : 0,
									"hidden" : 0,
									"source" : [ "obj-75", 0 ]
								}

							}
, 							{
								"patchline" : 								{
									"destination" : [ "obj-75", 0 ],
									"disabled" : 0,
									"hidden" : 1,
									"source" : [ "obj-8", 0 ]
								}

							}
, 							{
								"patchline" : 								{
									"destination" : [ "obj-10", 0 ],
									"disabled" : 0,
									"hidden" : 1,
									"source" : [ "obj-81", 3 ]
								}

							}
, 							{
								"patchline" : 								{
									"destination" : [ "obj-7", 0 ],
									"disabled" : 0,
									"hidden" : 0,
									"midpoints" : [ 274.5, 423.5, 147.0, 423.5, 147.0, 304.0, 19.5, 304.0 ],
									"source" : [ "obj-81", 0 ]
								}

							}
, 							{
								"patchline" : 								{
									"destination" : [ "obj-8", 0 ],
									"disabled" : 0,
									"hidden" : 1,
									"source" : [ "obj-81", 1 ]
								}

							}
, 							{
								"patchline" : 								{
									"destination" : [ "obj-9", 0 ],
									"disabled" : 0,
									"hidden" : 1,
									"source" : [ "obj-81", 2 ]
								}

							}
, 							{
								"patchline" : 								{
									"destination" : [ "obj-74", 0 ],
									"disabled" : 0,
									"hidden" : 1,
									"source" : [ "obj-9", 0 ]
								}

							}
 ],
						"dependency_cache" : [ 							{
								"name" : "helpdetails.js",
								"bootpath" : "/trunk/maxmsp-misc/help/resources",
								"type" : "TEXT",
								"implicit" : 1
							}
, 							{
								"name" : "demosound.maxpat",
								"bootpath" : "/trunk/msp-externs/helpfiles",
								"type" : "JSON",
								"implicit" : 1
							}
, 							{
								"name" : "sine.svg",
								"bootpath" : "/trunk/patches/picts/m4l-picts",
								"type" : "svg ",
								"implicit" : 1
							}
, 							{
								"name" : "saw.svg",
								"bootpath" : "/trunk/patches/picts/m4l-picts",
								"type" : "svg ",
								"implicit" : 1
							}
, 							{
								"name" : "square.svg",
								"bootpath" : "/trunk/patches/picts/m4l-picts",
								"type" : "svg ",
								"implicit" : 1
							}
, 							{
								"name" : "random.svg",
								"bootpath" : "/trunk/patches/picts/m4l-picts",
								"type" : "svg ",
								"implicit" : 1
							}
 ]
					}
,
					"patching_rect" : [ 10.0, 85.0, 50.0, 20.0 ],
					"saved_object_attributes" : 					{
						"fontface" : 0,
						"fontsize" : 13.0,
						"default_fontface" : 0,
						"digest" : "",
						"default_fontname" : "Arial",
						"fontname" : "Arial",
						"tags" : "",
						"default_fontsize" : 13.0,
						"description" : "",
						"globalpatchername" : ""
					}
,
					"text" : "p basic",
					"varname" : "basic_tab"
				}

			}
, 			{
				"box" : 				{
					"border" : 0,
					"filename" : "helpname.js",
					"id" : "obj-4",
					"jsarguments" : [ "biquad~" ],
					"maxclass" : "jsui",
					"numinlets" : 1,
					"numoutlets" : 1,
					"outlettype" : [ "" ],
					"parameter_enable" : 0,
					"patching_rect" : [ 10.0, 10.0, 305.0, 55.0 ]
				}

			}
, 			{
				"box" : 				{
					"fontname" : "Arial",
					"fontsize" : 12.0,
					"id" : "obj-5",
					"maxclass" : "newobj",
					"numinlets" : 0,
					"numoutlets" : 0,
					"patcher" : 					{
						"fileversion" : 1,
						"appversion" : 						{
							"major" : 6,
							"minor" : 0,
							"revision" : 2
						}
,
						"rect" : [ 0.0, 26.0, 700.0, 428.0 ],
						"bglocked" : 0,
						"openinpresentation" : 0,
						"default_fontsize" : 12.0,
						"default_fontface" : 0,
						"default_fontname" : "Arial",
						"gridonopen" : 0,
						"gridsize" : [ 15.0, 15.0 ],
						"gridsnaponopen" : 0,
						"statusbarvisible" : 2,
						"toolbarvisible" : 1,
						"boxanimatetime" : 200,
						"imprint" : 0,
						"enablehscroll" : 1,
						"enablevscroll" : 1,
						"devicewidth" : 0.0,
						"description" : "",
						"digest" : "",
						"tags" : "",
						"showontab" : 1,
						"boxes" : [  ],
						"lines" : [  ],
						"dependency_cache" : [  ]
					}
,
					"patching_rect" : [ 205.0, 205.0, 50.0, 20.0 ],
					"saved_object_attributes" : 					{
						"fontface" : 0,
						"fontsize" : 12.0,
						"default_fontface" : 0,
						"digest" : "",
						"default_fontname" : "Arial",
						"fontname" : "Arial",
						"tags" : "",
						"default_fontsize" : 12.0,
						"description" : "",
						"globalpatchername" : ""
					}
,
					"text" : "p ?",
					"varname" : "q_tab"
				}

			}
 ],
		"lines" : [  ],
		"parameters" : 		{
			"obj-8::obj-8" : [ "live.gain~[3]", "live.gain~", 0 ],
			"obj-2::obj-1::obj-35" : [ "[6]", "Level", 0 ],
			"obj-2::obj-1::obj-21::obj-6" : [ "live.tab[4]", "live.tab[1]", 0 ],
			"obj-2::obj-3" : [ "live.gain~[5]", "live.gain~", 0 ],
			"obj-3::obj-3" : [ "live.gain~[4]", "live.gain~", 0 ],
			"obj-2::obj-1::obj-32" : [ "[9]", "[2]", 0 ],
			"obj-7::obj-26" : [ "live.gain~", "live.gain~", 0 ]
		}
,
		"dependency_cache" : [ 			{
				"name" : "helpname.js",
				"bootpath" : "/trunk/maxmsp-misc/help/resources",
				"patcherrelativepath" : "../resources",
				"type" : "TEXT",
				"implicit" : 1
			}
, 			{
				"name" : "helpdetails.js",
				"bootpath" : "/trunk/maxmsp-misc/help/resources",
				"patcherrelativepath" : "../resources",
				"type" : "TEXT",
				"implicit" : 1
			}
, 			{
				"name" : "demosound.maxpat",
				"bootpath" : "/trunk/msp-externs/helpfiles",
				"patcherrelativepath" : "../../../msp-externs/helpfiles",
				"type" : "JSON",
				"implicit" : 1
			}
, 			{
				"name" : "sine.svg",
				"bootpath" : "/trunk/patches/picts/m4l-picts",
				"patcherrelativepath" : "../../../patches/picts/m4l-picts",
				"type" : "svg ",
				"implicit" : 1
			}
, 			{
				"name" : "saw.svg",
				"bootpath" : "/trunk/patches/picts/m4l-picts",
				"patcherrelativepath" : "../../../patches/picts/m4l-picts",
				"type" : "svg ",
				"implicit" : 1
			}
, 			{
				"name" : "square.svg",
				"bootpath" : "/trunk/patches/picts/m4l-picts",
				"patcherrelativepath" : "../../../patches/picts/m4l-picts",
				"type" : "svg ",
				"implicit" : 1
			}
, 			{
				"name" : "random.svg",
				"bootpath" : "/trunk/patches/picts/m4l-picts",
				"patcherrelativepath" : "../../../patches/picts/m4l-picts",
				"type" : "svg ",
				"implicit" : 1
			}
, 			{
				"name" : "helpstarter.js",
				"bootpath" : "/trunk/maxmsp-misc/help/resources",
				"patcherrelativepath" : "../resources",
				"type" : "TEXT",
				"implicit" : 1
			}
 ]
	}

}
