{
	"patcher" : 	{
		"fileversion" : 1,
		"appversion" : 		{
			"major" : 6,
			"minor" : 0,
			"revision" : 0
		}
,
		"rect" : [ 7.0, 49.0, 585.0, 591.0 ],
		"bglocked" : 0,
		"openinpresentation" : 0,
		"default_fontsize" : 12.0,
		"default_fontface" : 0,
		"default_fontname" : "Arial",
		"gridonopen" : 0,
		"gridsize" : [ 15.0, 15.0 ],
		"gridsnaponopen" : 0,
		"statusbarvisible" : 2,
		"toolbarvisible" : 1,
		"boxanimatetime" : 200,
		"imprint" : 0,
		"enablehscroll" : 1,
		"enablevscroll" : 1,
		"devicewidth" : 0.0,
		"description" : "",
		"digest" : "",
		"tags" : "",
		"showrootpatcherontab" : 0,
		"showontab" : 0,
		"boxes" : [ 			{
				"box" : 				{
					"fontname" : "Arial",
					"fontsize" : 12.0,
					"id" : "obj-1",
					"maxclass" : "newobj",
					"numinlets" : 1,
					"numoutlets" : 1,
					"outlettype" : [ "" ],
					"patching_rect" : [ 0.0, 0.0, 129.0, 20.0 ],
					"saved_object_attributes" : 					{
						"parameter_enable" : 0
					}
,
					"text" : "js helpstarter.js Borax"
				}

			}
, 			{
				"box" : 				{
					"fontname" : "Arial",
					"fontsize" : 12.0,
					"id" : "obj-2",
					"maxclass" : "newobj",
					"numinlets" : 0,
					"numoutlets" : 0,
					"patcher" : 					{
						"fileversion" : 1,
						"appversion" : 						{
							"major" : 6,
							"minor" : 0,
							"revision" : 0
						}
,
						"rect" : [ 18.0, 47.0, 739.0, 668.0 ],
						"bglocked" : 0,
						"openinpresentation" : 0,
						"default_fontsize" : 13.0,
						"default_fontface" : 0,
						"default_fontname" : "Arial",
						"gridonopen" : 0,
						"gridsize" : [ 5.0, 5.0 ],
						"gridsnaponopen" : 0,
						"statusbarvisible" : 2,
						"toolbarvisible" : 1,
						"boxanimatetime" : 200,
						"imprint" : 0,
						"enablehscroll" : 1,
						"enablevscroll" : 1,
						"devicewidth" : 0.0,
						"description" : "",
						"digest" : "",
						"tags" : "",
						"showontab" : 1,
						"boxes" : [ 							{
								"box" : 								{
									"bubble" : 1,
									"fontname" : "Arial",
									"fontsize" : 13.0,
									"frgb" : [ 0.501961, 0.501961, 0.501961, 1.0 ],
									"id" : "obj-7",
									"linecount" : 3,
									"maxclass" : "comment",
									"numinlets" : 1,
									"numoutlets" : 0,
									"patching_rect" : [ 228.5, 127.5, 185.0, 55.0 ],
									"text" : "Reset, sends out all currently held down notes with velocities of 0",
									"textcolor" : [ 0.501961, 0.501961, 0.501961, 1.0 ]
								}

							}
, 							{
								"box" : 								{
									"fontname" : "Arial",
									"fontsize" : 13.0,
									"id" : "obj-10",
									"maxclass" : "number",
									"numinlets" : 1,
									"numoutlets" : 2,
									"outlettype" : [ "int", "bang" ],
									"parameter_enable" : 0,
									"patching_rect" : [ 129.25, 301.5, 53.0, 21.0 ]
								}

							}
, 							{
								"box" : 								{
									"fontname" : "Arial",
									"fontsize" : 13.0,
									"frgb" : [ 0.501961, 0.501961, 0.501961, 1.0 ],
									"id" : "obj-11",
									"linecount" : 2,
									"maxclass" : "comment",
									"numinlets" : 1,
									"numoutlets" : 0,
									"patching_rect" : [ 89.5, 482.75, 357.0, 36.0 ],
									"text" : "Voice Allocation Number. Use this as an index to refer to a note when storing the other information from Borax",
									"textcolor" : [ 0.501961, 0.501961, 0.501961, 1.0 ]
								}

							}
, 							{
								"box" : 								{
									"fontname" : "Arial",
									"fontsize" : 13.0,
									"id" : "obj-12",
									"maxclass" : "newobj",
									"numinlets" : 3,
									"numoutlets" : 9,
									"outlettype" : [ "int", "int", "int", "int", "int", "int", "int", "int", "int" ],
									"patching_rect" : [ 10.0, 188.0, 178.0, 21.0 ],
									"text" : "borax"
								}

							}
, 							{
								"box" : 								{
									"fontname" : "Arial",
									"fontsize" : 13.0,
									"id" : "obj-13",
									"maxclass" : "newobj",
									"numinlets" : 1,
									"numoutlets" : 3,
									"outlettype" : [ "int", "int", "int" ],
									"patching_rect" : [ 10.0, 145.0, 178.5, 21.0 ],
									"text" : "notein"
								}

							}
, 							{
								"box" : 								{
									"id" : "obj-16",
									"maxclass" : "button",
									"numinlets" : 1,
									"numoutlets" : 1,
									"outlettype" : [ "bang" ],
									"patching_rect" : [ 202.0, 145.0, 20.0, 20.0 ]
								}

							}
, 							{
								"box" : 								{
									"fontname" : "Arial",
									"fontsize" : 13.0,
									"id" : "obj-19",
									"maxclass" : "number",
									"numinlets" : 1,
									"numoutlets" : 2,
									"outlettype" : [ "int", "bang" ],
									"parameter_enable" : 0,
									"patching_rect" : [ 10.0, 519.0, 53.0, 21.0 ]
								}

							}
, 							{
								"box" : 								{
									"fontname" : "Arial",
									"fontsize" : 13.0,
									"id" : "obj-20",
									"maxclass" : "number",
									"numinlets" : 1,
									"numoutlets" : 2,
									"outlettype" : [ "int", "bang" ],
									"parameter_enable" : 0,
									"patching_rect" : [ 29.875, 482.75, 53.0, 21.0 ]
								}

							}
, 							{
								"box" : 								{
									"fontname" : "Arial",
									"fontsize" : 13.0,
									"id" : "obj-21",
									"maxclass" : "number",
									"numinlets" : 1,
									"numoutlets" : 2,
									"outlettype" : [ "int", "bang" ],
									"parameter_enable" : 0,
									"patching_rect" : [ 49.75, 446.5, 53.0, 21.0 ]
								}

							}
, 							{
								"box" : 								{
									"fontname" : "Arial",
									"fontsize" : 13.0,
									"frgb" : [ 0.501961, 0.501961, 0.501961, 1.0 ],
									"id" : "obj-22",
									"maxclass" : "comment",
									"numinlets" : 1,
									"numoutlets" : 0,
									"patching_rect" : [ 109.375, 446.5, 227.0, 21.0 ],
									"text" : "Number of notes currently held down",
									"textcolor" : [ 0.501961, 0.501961, 0.501961, 1.0 ]
								}

							}
, 							{
								"box" : 								{
									"fontname" : "Arial",
									"fontsize" : 13.0,
									"id" : "obj-23",
									"maxclass" : "number",
									"numinlets" : 1,
									"numoutlets" : 2,
									"outlettype" : [ "int", "bang" ],
									"parameter_enable" : 0,
									"patching_rect" : [ 69.625, 410.25, 53.0, 21.0 ]
								}

							}
, 							{
								"box" : 								{
									"fontname" : "Arial",
									"fontsize" : 13.0,
									"id" : "obj-24",
									"maxclass" : "number",
									"numinlets" : 1,
									"numoutlets" : 2,
									"outlettype" : [ "int", "bang" ],
									"parameter_enable" : 0,
									"patching_rect" : [ 89.5, 374.0, 53.0, 21.0 ]
								}

							}
, 							{
								"box" : 								{
									"fontname" : "Arial",
									"fontsize" : 13.0,
									"id" : "obj-25",
									"maxclass" : "number",
									"numinlets" : 1,
									"numoutlets" : 2,
									"outlettype" : [ "int", "bang" ],
									"parameter_enable" : 0,
									"patching_rect" : [ 109.375, 337.75, 53.0, 21.0 ]
								}

							}
, 							{
								"box" : 								{
									"fontname" : "Arial",
									"fontsize" : 13.0,
									"frgb" : [ 0.501961, 0.501961, 0.501961, 1.0 ],
									"id" : "obj-26",
									"maxclass" : "comment",
									"numinlets" : 1,
									"numoutlets" : 0,
									"patching_rect" : [ 149.125, 374.0, 245.0, 21.0 ],
									"text" : "Velocity of incoming note (0 for note-off)",
									"textcolor" : [ 0.501961, 0.501961, 0.501961, 1.0 ]
								}

							}
, 							{
								"box" : 								{
									"fontname" : "Arial",
									"fontsize" : 13.0,
									"frgb" : [ 0.501961, 0.501961, 0.501961, 1.0 ],
									"id" : "obj-27",
									"maxclass" : "comment",
									"numinlets" : 1,
									"numoutlets" : 0,
									"patching_rect" : [ 129.25, 410.25, 140.0, 21.0 ],
									"text" : "Pitch of incoming note",
									"textcolor" : [ 0.501961, 0.501961, 0.501961, 1.0 ]
								}

							}
, 							{
								"box" : 								{
									"fontname" : "Arial",
									"fontsize" : 13.0,
									"id" : "obj-28",
									"maxclass" : "number",
									"numinlets" : 1,
									"numoutlets" : 2,
									"outlettype" : [ "int", "bang" ],
									"parameter_enable" : 0,
									"patching_rect" : [ 169.0, 229.0, 53.0, 21.0 ]
								}

							}
, 							{
								"box" : 								{
									"fontname" : "Arial",
									"fontsize" : 13.0,
									"id" : "obj-29",
									"maxclass" : "number",
									"numinlets" : 1,
									"numoutlets" : 2,
									"outlettype" : [ "int", "bang" ],
									"parameter_enable" : 0,
									"patching_rect" : [ 149.125, 265.25, 53.0, 21.0 ]
								}

							}
, 							{
								"box" : 								{
									"fontname" : "Arial",
									"fontsize" : 13.0,
									"frgb" : [ 0.501961, 0.501961, 0.501961, 1.0 ],
									"id" : "obj-30",
									"maxclass" : "comment",
									"numinlets" : 1,
									"numoutlets" : 0,
									"patching_rect" : [ 210.0, 265.25, 288.0, 21.0 ],
									"text" : "Event number associated with delta-time report",
									"textcolor" : [ 0.501961, 0.501961, 0.501961, 1.0 ]
								}

							}
, 							{
								"box" : 								{
									"fontname" : "Arial",
									"fontsize" : 13.0,
									"frgb" : [ 0.501961, 0.501961, 0.501961, 1.0 ],
									"id" : "obj-31",
									"maxclass" : "comment",
									"numinlets" : 1,
									"numoutlets" : 0,
									"patching_rect" : [ 69.625, 519.0, 332.0, 21.0 ],
									"text" : "Event number associated with pitch and velocity report",
									"textcolor" : [ 0.501961, 0.501961, 0.501961, 1.0 ]
								}

							}
, 							{
								"box" : 								{
									"fontname" : "Arial",
									"fontsize" : 13.0,
									"frgb" : [ 0.501961, 0.501961, 0.501961, 1.0 ],
									"id" : "obj-32",
									"maxclass" : "comment",
									"numinlets" : 1,
									"numoutlets" : 0,
									"patching_rect" : [ 228.5, 229.0, 180.0, 21.0 ],
									"text" : "Delta-time between note-ons",
									"textcolor" : [ 0.501961, 0.501961, 0.501961, 1.0 ]
								}

							}
, 							{
								"box" : 								{
									"fontname" : "Arial",
									"fontsize" : 13.0,
									"frgb" : [ 0.501961, 0.501961, 0.501961, 1.0 ],
									"id" : "obj-33",
									"maxclass" : "comment",
									"numinlets" : 1,
									"numoutlets" : 0,
									"patching_rect" : [ 169.0, 337.75, 278.0, 21.0 ],
									"text" : "Event number associated with duration report",
									"textcolor" : [ 0.501961, 0.501961, 0.501961, 1.0 ]
								}

							}
, 							{
								"box" : 								{
									"fontname" : "Arial",
									"fontsize" : 13.0,
									"frgb" : [ 0.501961, 0.501961, 0.501961, 1.0 ],
									"id" : "obj-34",
									"maxclass" : "comment",
									"numinlets" : 1,
									"numoutlets" : 0,
									"patching_rect" : [ 182.5, 304.0, 231.0, 21.0 ],
									"text" : "Duration value (sent out with note-off)",
									"textcolor" : [ 0.501961, 0.501961, 0.501961, 1.0 ]
								}

							}
, 							{
								"box" : 								{
									"border" : 0,
									"filename" : "helpdetails.js",
									"id" : "obj-2",
									"jsarguments" : [ "Borax" ],
									"maxclass" : "jsui",
									"numinlets" : 1,
									"numoutlets" : 1,
									"outlettype" : [ "" ],
									"parameter_enable" : 0,
									"patching_rect" : [ 10.0, 10.0, 620.0, 125.0 ]
								}

							}
 ],
						"lines" : [ 							{
								"patchline" : 								{
									"destination" : [ "obj-10", 0 ],
									"disabled" : 0,
									"hidden" : 0,
									"source" : [ "obj-12", 6 ]
								}

							}
, 							{
								"patchline" : 								{
									"destination" : [ "obj-19", 0 ],
									"disabled" : 0,
									"hidden" : 0,
									"source" : [ "obj-12", 0 ]
								}

							}
, 							{
								"patchline" : 								{
									"destination" : [ "obj-20", 0 ],
									"disabled" : 0,
									"hidden" : 0,
									"source" : [ "obj-12", 1 ]
								}

							}
, 							{
								"patchline" : 								{
									"destination" : [ "obj-21", 0 ],
									"disabled" : 0,
									"hidden" : 0,
									"source" : [ "obj-12", 2 ]
								}

							}
, 							{
								"patchline" : 								{
									"destination" : [ "obj-23", 0 ],
									"disabled" : 0,
									"hidden" : 0,
									"source" : [ "obj-12", 3 ]
								}

							}
, 							{
								"patchline" : 								{
									"destination" : [ "obj-24", 0 ],
									"disabled" : 0,
									"hidden" : 0,
									"source" : [ "obj-12", 4 ]
								}

							}
, 							{
								"patchline" : 								{
									"destination" : [ "obj-25", 0 ],
									"disabled" : 0,
									"hidden" : 0,
									"source" : [ "obj-12", 5 ]
								}

							}
, 							{
								"patchline" : 								{
									"destination" : [ "obj-28", 0 ],
									"disabled" : 0,
									"hidden" : 0,
									"source" : [ "obj-12", 8 ]
								}

							}
, 							{
								"patchline" : 								{
									"destination" : [ "obj-29", 0 ],
									"disabled" : 0,
									"hidden" : 0,
									"source" : [ "obj-12", 7 ]
								}

							}
, 							{
								"patchline" : 								{
									"destination" : [ "obj-12", 1 ],
									"disabled" : 0,
									"hidden" : 0,
									"source" : [ "obj-13", 1 ]
								}

							}
, 							{
								"patchline" : 								{
									"destination" : [ "obj-12", 0 ],
									"disabled" : 0,
									"hidden" : 0,
									"source" : [ "obj-13", 0 ]
								}

							}
, 							{
								"patchline" : 								{
									"destination" : [ "obj-12", 2 ],
									"disabled" : 0,
									"hidden" : 0,
									"midpoints" : [ 211.5, 181.0, 178.5, 181.0 ],
									"source" : [ "obj-16", 0 ]
								}

							}
 ],
						"dependency_cache" : [ 							{
								"name" : "helpdetails.js",
								"type" : "TEXT",
								"implicit" : 1
							}
 ]
					}
,
					"patching_rect" : [ 10.0, 85.0, 50.0, 20.0 ],
					"saved_object_attributes" : 					{
						"fontface" : 0,
						"fontsize" : 13.0,
						"tags" : "",
						"globalpatchername" : "",
						"default_fontface" : 0,
						"digest" : "",
						"default_fontname" : "Arial",
						"fontname" : "Arial",
						"default_fontsize" : 13.0,
						"description" : ""
					}
,
					"text" : "p basic",
					"varname" : "basic_tab"
				}

			}
, 			{
				"box" : 				{
					"border" : 0,
					"filename" : "helpname.js",
					"id" : "obj-4",
					"jsarguments" : [ "Borax" ],
					"maxclass" : "jsui",
					"numinlets" : 1,
					"numoutlets" : 1,
					"outlettype" : [ "" ],
					"parameter_enable" : 0,
					"patching_rect" : [ 10.0, 10.0, 305.0, 55.0 ]
				}

			}
, 			{
				"box" : 				{
					"fontname" : "Arial",
					"fontsize" : 12.0,
					"id" : "obj-3",
					"maxclass" : "newobj",
					"numinlets" : 0,
					"numoutlets" : 0,
					"patcher" : 					{
						"fileversion" : 1,
						"appversion" : 						{
							"major" : 6,
							"minor" : 0,
							"revision" : 0
						}
,
						"rect" : [ 25.0, 69.0, 640.0, 480.0 ],
						"bglocked" : 0,
						"openinpresentation" : 0,
						"default_fontsize" : 13.0,
						"default_fontface" : 0,
						"default_fontname" : "Arial",
						"gridonopen" : 0,
						"gridsize" : [ 5.0, 5.0 ],
						"gridsnaponopen" : 0,
						"statusbarvisible" : 2,
						"toolbarvisible" : 1,
						"boxanimatetime" : 200,
						"imprint" : 0,
						"enablehscroll" : 1,
						"enablevscroll" : 1,
						"devicewidth" : 0.0,
						"description" : "",
						"digest" : "",
						"tags" : "",
						"showontab" : 1,
						"boxes" : [  ],
						"lines" : [  ],
						"dependency_cache" : [  ]
					}
,
					"patching_rect" : [ 205.0, 205.0, 50.0, 20.0 ],
					"saved_object_attributes" : 					{
						"fontface" : 0,
						"fontsize" : 13.0,
						"tags" : "",
						"globalpatchername" : "",
						"default_fontface" : 0,
						"digest" : "",
						"default_fontname" : "Arial",
						"fontname" : "Arial",
						"default_fontsize" : 13.0,
						"description" : ""
					}
,
					"text" : "p ?",
					"varname" : "q_tab"
				}

			}
 ],
		"lines" : [  ],
		"dependency_cache" : [ 			{
				"name" : "helpname.js",
				"type" : "TEXT",
				"implicit" : 1
			}
, 			{
				"name" : "helpdetails.js",
				"type" : "TEXT",
				"implicit" : 1
			}
, 			{
				"name" : "helpstarter.js",
				"type" : "TEXT",
				"implicit" : 1
			}
 ]
	}

}
